<?xml version="1.0" encoding="utf-8"?>
<!-- Generator: Adobe Illustrator 23.0.4, SVG Export Plug-In . SVG Version: 6.00 Build 0)  -->
<svg version="1.1" id="Capa_1" xmlns="http://www.w3.org/2000/svg" xmlns:xlink="http://www.w3.org/1999/xlink" x="0px" y="0px"
	 viewBox="0 0 353 353" style="enable-background:new 0 0 353 353;" xml:space="preserve">
<style type="text/css">
	.st0{fill:#EF8829;}
	.st1{fill:#F7B923;}
</style>
<g>
	<g>
		<path class="st0" d="M162.9,16.1c-26,4.2-48.3,20.5-61.5,43.2C114.6,36.6,136.9,20.3,162.9,16.1z"/>
		<path class="st0" d="M152.8,232.7c-8.8-24.8-39.5-61.8-43.6-66.6c-12.4-15.5-19.5-34.9-20.4-55c0.8,20.2,8,39.6,20.4,55
			C113.2,170.8,144,207.8,152.8,232.7L152.8,232.7z"/>
		<path class="st0" d="M92.7,79.7c0.9-2.9,1.8-5.7,2.9-8.4C94.5,74,93.5,76.8,92.7,79.7z"/>
		<path class="st0" d="M95.6,71.2c1.1-2.7,2.3-5.4,3.7-8C98,65.8,96.7,68.5,95.6,71.2z"/>
		<path class="st0" d="M189.4,16c-1.8-0.3-3.7-0.5-5.5-0.6C185.8,15.5,187.6,15.7,189.4,16z"/>
		<path class="st0" d="M201.9,18.9c-1.8-0.6-3.6-1-5.5-1.5C198.3,17.8,200.1,18.3,201.9,18.9z"/>
		<path class="st0" d="M207.5,20.9c-1.8-0.7-3.7-1.4-5.6-2C203.8,19.5,205.6,20.1,207.5,20.9z"/>
		<path class="st0" d="M208.4,21.2c3.7,1.5,7.2,3.2,10.7,5.2C215.6,24.4,212,22.7,208.4,21.2z"/>
		<path class="st0" d="M189.6,16c1.9,0.3,3.8,0.7,5.7,1.1C193.4,16.7,191.5,16.3,189.6,16z"/>
		<path class="st0" d="M182.5,15.3c-1.9-0.1-3.8-0.2-5.7-0.2C178.7,15,180.6,15.1,182.5,15.3z"/>
	</g>
	<path class="st1" d="M204.4,32.8c-2,0-3.9,0.8-5.3,2.2c-1.4,1.4-2.2,3.3-2.2,5.3c0,2,0.8,3.9,2.2,5.3c1.4,1.4,3.3,2.2,5.3,2.2
		c2,0,3.9-0.8,5.3-2.2c1.4-1.4,2.2-3.3,2.2-5.3c0-2-0.8-3.9-2.2-5.3C208.3,33.6,206.4,32.8,204.4,32.8z"/>
	<path class="st1" d="M227.5,55.9c-2,0-3.9,0.8-5.3,2.2c-1.4,1.4-2.2,3.3-2.2,5.3c0,2,0.8,3.9,2.2,5.3c1.4,1.4,3.3,2.2,5.3,2.2
		c2,0,3.9-0.8,5.3-2.2c1.4-1.4,2.2-3.3,2.2-5.3c0-2-0.8-3.9-2.2-5.3C231.4,56.7,229.5,55.9,227.5,55.9z"/>
	<path class="st1" d="M198.1,62.2c-2,0-3.9,0.8-5.3,2.2c-1.4,1.4-2.2,3.3-2.2,5.3c0,2,0.8,3.9,2.2,5.3c1.4,1.4,3.3,2.2,5.3,2.2
		c2,0,3.9-0.8,5.3-2.2c1.4-1.4,2.2-3.3,2.2-5.3c0-2-0.8-3.9-2.2-5.3C202,63,200.1,62.2,198.1,62.2z"/>
	<path class="st1" d="M249.4,31.5C230,11.2,204.2,0,176.8,0h-0.5C119.7,0,73.7,48,73.7,107c0,25,8.5,49.4,23.8,68.6
		c0,0,0.1,0.1,0.1,0.1c10.4,12.4,38.4,48.4,42.2,66.1c0.7,3.5,3.8,5.9,7.4,5.9h4.2v45.9c-12.3,4-20.9,15.4-20.9,28.9
		c0,16.8,13.7,30.5,30.5,30.5c5.5,0,10.9-1.5,15.5-4.3c4.7,2.8,10,4.3,15.5,4.3h0c16.8,0,30.5-13.7,30.5-30.5
		c0-13.5-8.6-24.9-20.9-28.9v-45.9h4.2c3.5,0,6.6-2.5,7.4-5.9c3.8-17.6,31.7-53.7,42.2-66.1c0,0,0.1-0.1,0.1-0.1
		c15.4-19.2,23.8-43.5,23.8-68.6C279.3,78.5,268.7,51.6,249.4,31.5z M243.8,166c-4,4.8-34.8,41.8-43.6,66.6h-47.5
		c-8.8-24.8-39.5-61.8-43.6-66.6C96,149.5,88.7,128.6,88.7,107C88.7,56.3,128,15,176.2,15h0.5c23.3,0,45.2,9.5,61.8,26.8
		c16.6,17.4,25.8,40.5,25.8,65.1C264.3,128.6,257,149.5,243.8,166z M192,338L192,338c-3.9,0-7.6-1.5-10.4-4.1
		c-2.9-2.6-7.3-2.7-10.2,0c-2.9,2.6-6.6,4.1-10.5,4.1c-8.5,0-15.4-6.9-15.4-15.4c0-7.9,6.2-14.7,14-15.4c3.9-0.3,6.9-3.6,6.9-7.5
		v-52h20.2v52c0,3.9,3,7.1,6.9,7.5c7.9,0.7,14,7.4,14,15.4C207.5,331,200.6,338,192,338z"/>
</g>
</svg>
