<?xml version="1.0" encoding="utf-8"?>
<!-- Generator: Adobe Illustrator 23.0.4, SVG Export Plug-In . SVG Version: 6.00 Build 0)  -->
<svg version="1.1" id="Capa_1" xmlns="http://www.w3.org/2000/svg" xmlns:xlink="http://www.w3.org/1999/xlink" x="0px" y="0px"
	 viewBox="0 0 445.5 445.1" style="enable-background:new 0 0 445.5 445.1;" xml:space="preserve">
<style type="text/css">
	.st0{fill:none;stroke:#DA3047;stroke-width:40;stroke-miterlimit:10;}
	.st1{fill:none;stroke:#DA3047;stroke-width:40;stroke-linecap:round;stroke-linejoin:round;stroke-miterlimit:10;}
</style>
<path class="st0" d="M366.5,104.8c3-24.4,1.2-55.8-11.1-72.1c-16.5-22-65.9-11.4-53.1,1.7c14.3,14.6,36.6,33.5,35.8,61.7
	c-0.7-0.2-1.3-0.3-2-0.5c-57.3-12.9-99.9,20.9-106.6,44c-11.6,40.5,60.4,8.4,69.6,26.2c27.1,52.5,58,2.3,65.5,19s60.9,64,60.9,9.5
	C425.5,149.5,407.8,121.4,366.5,104.8z"/>
<path class="st1" d="M364.6,183.8c-7.4-16.7-38.4,33.5-65.5-19c-5.6-10.9-34.7-3.1-53.9-4.7c-4.5,43.2-13,74.8-39.4,108.1
	c-27.7,35-64.7,50.9-143.4,57.8c-38.5,3.4-58.1,37.3-27.3,68.8c23.1,23.6,66.9,39.2,139.3,24.9c121.6-24.1,224.9-92,235.3-200.9
	C393.4,218.1,369.4,194.6,364.6,183.8z"/>
</svg>
