<?xml version="1.0" encoding="utf-8"?>
<!-- Generator: Adobe Illustrator 23.0.4, SVG Export Plug-In . SVG Version: 6.00 Build 0)  -->
<svg version="1.1" id="Layer_1" xmlns="http://www.w3.org/2000/svg" xmlns:xlink="http://www.w3.org/1999/xlink" x="0px" y="0px"
	 viewBox="0 0 512 512" style="enable-background:new 0 0 512 512;" xml:space="preserve">
<style type="text/css">
	.st0{fill:#F7B923;}
</style>
<g>
	<g>
		<g>
			<path class="st0" d="M257,349.7c18,0,32.7-14.7,32.7-32.7c0-18-14.7-32.7-32.7-32.7c-18,0-32.7,14.7-32.7,32.7
				C224.4,335,239,349.7,257,349.7z M257,299.3c9.8,0,17.7,7.9,17.7,17.7c0,9.8-7.9,17.7-17.7,17.7c-9.8,0-17.7-7.9-17.7-17.7
				C239.4,307.3,247.3,299.3,257,299.3z"/>
			<path class="st0" d="M402.1,108.3c29.9,0,54.2-24.3,54.2-54.2c0-29.9-24.3-54.2-54.2-54.2c-29.9,0-54.2,24.3-54.2,54.2
				C347.9,84,372.2,108.3,402.1,108.3z M402.1,15c21.6,0,39.2,17.6,39.2,39.2s-17.6,39.2-39.2,39.2c-21.6,0-39.2-17.6-39.2-39.2
				S380.5,15,402.1,15z"/>
			<path class="st0" d="M482.3,191.7c-4.1,0-7.5,3.4-7.5,7.5v102.6c0,2.7-2.2,4.8-4.8,4.8h-18.3V174.3c0-4.1-3.4-7.5-7.5-7.5
				s-7.5,3.4-7.5,7.5v317.8c0,2.7-2.2,4.8-4.8,4.8h-17.4c-2.7,0-4.8-2.2-4.8-4.8V372.8c0-4.1-3.4-7.5-7.5-7.5s-7.5,3.4-7.5,7.5
				v119.3c0,2.7-2.2,4.8-4.8,4.8h-17.4c-2.7,0-4.8-2.2-4.8-4.8V174.3c0-4.1-3.4-7.5-7.5-7.5s-7.5,3.4-7.5,7.5v132.4h-18.3
				c-2.7,0-4.8-2.2-4.8-4.8V174.3c0-24.6,20-44.7,44.7-44.7h56.2c24.6,0,44.7,20,44.7,44.7c0,4.1,3.4,7.5,7.5,7.5s7.5-3.4,7.5-7.5
				c0-32.9-26.8-59.7-59.7-59.7H374c-32.9,0-59.7,26.8-59.7,59.7v127.6c0,10.9,8.9,19.8,19.8,19.8h18.3v170.5
				c0,10.9,8.9,19.8,19.8,19.8h17.4c4.7,0,9-1.6,12.3-4.3c3.4,2.7,7.7,4.3,12.3,4.3h17.4c10.9,0,19.8-8.9,19.8-19.8V321.7H470
				c10.9,0,19.8-8.9,19.8-19.8V199.2C489.8,195.1,486.5,191.7,482.3,191.7z"/>
			<path class="st0" d="M100.2,154.2c29.9,0,54.2-24.3,54.2-54.2c0-29.9-24.3-54.2-54.2-54.2C70.3,45.8,46,70.2,46,100
				C46,129.9,70.3,154.2,100.2,154.2z M100.2,60.8c21.6,0,39.2,17.6,39.2,39.2s-17.6,39.2-39.2,39.2C78.6,139.2,61,121.6,61,100
				C61,78.4,78.6,60.8,100.2,60.8z"/>
			<path class="st0" d="M124.8,161.2H75.5c-29.4,0-53.3,23.9-53.3,53.3v112c0,10.1,8.2,18.3,18.3,18.3h0.2l-5.2,47.3
				c-0.2,2.1,0.4,4.2,1.9,5.8c1.4,1.6,3.5,2.5,5.6,2.5h12.7v93.2c0,10.1,8.2,18.3,18.3,18.3h15.3c4.1,0,7.8-1.3,10.8-3.6
				c3,2.2,6.8,3.6,10.8,3.6h15.3c10.1,0,18.3-8.2,18.3-18.3v-41.4c0-4.1-3.4-7.5-7.5-7.5s-7.5,3.4-7.5,7.5v41.4
				c0,1.8-1.5,3.3-3.3,3.3H111c-1.8,0-3.3-1.5-3.3-3.3v-80.1c0-4.1-3.4-7.5-7.5-7.5s-7.5,3.4-7.5,7.5v80.1c0,1.8-1.5,3.3-3.3,3.3H74
				c-1.8,0-3.3-1.5-3.3-3.3v-93.2h59v27.8c0,4.1,3.4,7.5,7.5,7.5s7.5-3.4,7.5-7.5v-27.8h12.7c2.1,0,4.2-0.9,5.6-2.5
				c1.4-1.6,2.1-3.7,1.9-5.8l-5.2-47.3h0.2c10.1,0,18.3-8.2,18.3-18.3v-112C178.1,185.2,154.2,161.2,124.8,161.2z M163.1,326.6
				L163.1,326.6c0,1.8-1.5,3.3-3.3,3.3h-1.9l-13.7-125c-0.5-4.1-4.2-7.1-8.3-6.6c-4.1,0.5-7.1,4.2-6.6,8.3l19.7,178.9h-7.1h-4.7h-74
				H57h-5.6L71,206.6c0.5-4.1-2.5-7.8-6.6-8.3c-4.1-0.4-7.8,2.5-8.3,6.6l-13.7,125h-1.9c-1.8,0-3.3-1.5-3.3-3.3v-112
				c0-21.1,17.2-38.3,38.3-38.3h49.3c21.1,0,38.3,17.2,38.3,38.3L163.1,326.6L163.1,326.6z"/>
			<path class="st0" d="M313.9,324.8c-5.4,0.2-10.3,2.4-14,6.3l-28,29.8h-29l-28-29.8c-7.6-8.1-20.3-8.5-28.4-0.9
				c-8.1,7.6-8.5,20.3-0.9,28.4l32.4,34.5v99.2c0,10.8,8.8,19.6,19.6,19.6h39.5c10.8,0,19.6-8.8,19.6-19.6v-41.2
				c0-4.1-3.4-7.5-7.5-7.5s-7.5,3.4-7.5,7.5v41.2c0,2.5-2.1,4.6-4.6,4.6h-12.6v-62.6c0-4.1-3.4-7.5-7.5-7.5c-4.1,0-7.5,3.4-7.5,7.5
				V497h-11.9c-2.5,0-4.6-2.1-4.6-4.6V390.2c0-1.9-0.7-3.7-2-5.1l-34.5-36.7c-1.9-2.1-1.8-5.3,0.2-7.2c2.1-1.9,5.3-1.8,7.2,0.2
				l30.2,32.2c1.4,1.5,3.4,2.4,5.5,2.4h35.4c2.1,0,4-0.9,5.5-2.4l30.2-32.2c1.9-2.1,5.2-2.2,7.2-0.2c2.1,1.9,2.2,5.2,0.2,7.2
				L283.8,385c-1.3,1.4-2,3.2-2,5.1v36.1c0,4.1,3.4,7.5,7.5,7.5s7.5-3.4,7.5-7.5v-33.1l32.4-34.5c7.6-8.1,7.2-20.8-0.9-28.4
				C324.4,326.5,319.3,324.6,313.9,324.8z"/>
		</g>
	</g>
</g>
</svg>
