<?xml version="1.0" encoding="utf-8"?>
<!-- Generator: Adobe Illustrator 23.0.4, SVG Export Plug-In . SVG Version: 6.00 Build 0)  -->
<svg version="1.1" id="Capa_1" xmlns="http://www.w3.org/2000/svg" xmlns:xlink="http://www.w3.org/1999/xlink" x="0px" y="0px"
	 viewBox="0 0 402 402" style="enable-background:new 0 0 402 402;" xml:space="preserve">
<style type="text/css">
	.st0{fill:#F7B923;}
</style>
<g>
	<path class="st0" d="M68.9,180.4c-2,0-3.9,0.8-5.3,2.2c-1.4,1.4-2.2,3.3-2.2,5.3c0,2,0.8,3.9,2.2,5.3c1.4,1.4,3.3,2.2,5.3,2.2
		c2,0,3.9-0.8,5.3-2.2c1.4-1.4,2.2-3.3,2.2-5.3c0-2-0.8-3.9-2.2-5.3C72.8,181.2,70.9,180.4,68.9,180.4z"/>
	<path class="st0" d="M276.4,187.2C255.2,175,222.5,161,156.5,161c-0.6,0-1.1,0-1.7,0c-4.2,0-7.5,3.4-7.5,7.5c0,4.1,3.4,7.5,7.5,7.5
		c0,0,0,0,0,0c63.6-0.2,94.3,12.8,114,24.1c1.2,0.7,2.5,1,3.7,1c2.6,0,5.1-1.3,6.5-3.8C281.2,193.8,280,189.2,276.4,187.2z"/>
	<g>
		<path class="st0" d="M288.8,174.6c0.3,0.2,0.7,0.4,1,0.7C289.5,175,289.2,174.8,288.8,174.6z"/>
		<path class="st0" d="M292.5,177.1c0.1,0.1,0.2,0.1,0.3,0.2C292.7,177.2,292.6,177.1,292.5,177.1z"/>
		<path class="st0" d="M285.5,172.5c0.4,0.2,0.7,0.4,1.1,0.7C286.3,173,285.9,172.7,285.5,172.5z"/>
		<path class="st0" d="M277.7,168.2c0.3,0.2,0.6,0.3,0.9,0.5C278.3,168.5,278,168.4,277.7,168.2z"/>
		<path class="st0" d="M304.9,188.7c0.2,0.3,0.4,0.6,0.6,0.8C305.3,189.2,305.1,189,304.9,188.7z"/>
		<path class="st0" d="M303.1,186.5c0.2,0.2,0.3,0.4,0.5,0.6C303.4,186.9,303.2,186.7,303.1,186.5z"/>
		<path class="st0" d="M273.6,166.3c0.4,0.2,0.9,0.4,1.3,0.6C274.5,166.7,274,166.5,273.6,166.3z"/>
		<path class="st0" d="M301.1,184.4c-0.2-0.2-0.4-0.4-0.7-0.7C300.6,183.9,300.9,184.1,301.1,184.4z"/>
		<path class="st0" d="M295.4,179.3c0.3,0.2,0.6,0.5,0.9,0.7C296,179.8,295.7,179.5,295.4,179.3z"/>
		<path class="st0" d="M298,181.4c0.3,0.3,0.6,0.5,0.9,0.8C298.5,181.9,298.3,181.7,298,181.4z"/>
		<path class="st0" d="M282.2,170.6c0.3,0.2,0.5,0.3,0.8,0.5C282.7,170.9,282.5,170.7,282.2,170.6z"/>
		<path class="st0" d="M61.5,189.2c-0.1-0.4-0.1-0.9-0.1-1.3C61.4,188.4,61.5,188.8,61.5,189.2z"/>
		<path class="st0" d="M269.6,164.5c0.4,0.2,0.8,0.4,1.2,0.5C270.4,164.8,270,164.6,269.6,164.5z"/>
		<path class="st0" d="M75.3,183.9c0-0.1-0.1-0.1-0.1-0.2C75.2,183.8,75.2,183.9,75.3,183.9z"/>
		<path class="st0" d="M152.9,161.3c0.1,0,0.2-0.1,0.3-0.1C153.1,161.2,153,161.3,152.9,161.3z"/>
		<path class="st0" d="M61.9,190.5c-0.1-0.3-0.2-0.6-0.3-0.9C61.7,189.9,61.8,190.2,61.9,190.5z"/>
		<path class="st0" d="M20.5,199.6c-0.2-0.2-0.4-0.3-0.6-0.5C20.1,199.3,20.3,199.5,20.5,199.6z"/>
		<path class="st0" d="M23.4,201.9c-0.6-0.5-1.3-1-1.9-1.4C22.2,201,22.8,201.4,23.4,201.9z"/>
		<path class="st0" d="M34.9,210.1c-0.8-0.5-1.6-1.1-2.3-1.6C33.3,209.1,34.1,209.6,34.9,210.1z"/>
		<path class="st0" d="M32.5,208.5c-3.4-2.4-6.5-4.6-9.1-6.6C26,203.9,29.1,206.2,32.5,208.5z"/>
	</g>
	<g>
		<path class="st0" d="M131.6,133c-3.2,0.5-6.4,1-9.5,1.6C125.2,134,128.4,133.5,131.6,133z"/>
		<path class="st0" d="M151.1,131c-1.4,0.1-2.8,0.2-4.2,0.3C148.3,131.3,149.7,131.1,151.1,131z"/>
		<path class="st0" d="M141.2,131.8c-1.7,0.2-3.4,0.4-5.1,0.6C137.8,132.2,139.5,132,141.2,131.8z"/>
	</g>
	<g>
		<path class="st0" d="M330.6,205.1c-0.2-0.2-0.3-0.4-0.5-0.7C330.2,204.6,330.4,204.8,330.6,205.1z"/>
		<path class="st0" d="M329.1,203c-0.2-0.2-0.3-0.5-0.5-0.7C328.7,202.5,328.9,202.7,329.1,203z"/>
		<path class="st0" d="M332.8,207.9c-0.2-0.2-0.4-0.4-0.5-0.6C332.4,207.5,332.6,207.7,332.8,207.9z"/>
		<path class="st0" d="M336.6,212.1c0.3,0.3,0.6,0.7,1,1C337.2,212.7,336.9,212.4,336.6,212.1z"/>
		<path class="st0" d="M335.1,210.5c-0.3-0.3-0.6-0.6-0.9-0.9C334.5,209.9,334.8,210.2,335.1,210.5z"/>
		<path class="st0" d="M327.8,201c-0.1-0.2-0.2-0.4-0.3-0.5C327.5,200.6,327.6,200.8,327.8,201z"/>
		<path class="st0" d="M351.7,223.8c-0.5-0.3-1-0.6-1.5-0.9C350.7,223.2,351.2,223.5,351.7,223.8z"/>
		<path class="st0" d="M340.3,215.6c-0.3-0.3-0.6-0.5-0.8-0.8C339.7,215.1,340,215.3,340.3,215.6z"/>
		<path class="st0" d="M361.9,228.8c-0.6-0.2-1.2-0.5-1.8-0.7C360.7,228.3,361.3,228.6,361.9,228.8z"/>
		<path class="st0" d="M356.6,226.4c-0.4-0.2-0.9-0.4-1.3-0.7C355.7,226,356.1,226.2,356.6,226.4z"/>
		<path class="st0" d="M347.9,221.5c-0.5-0.3-1-0.7-1.5-1C347,220.8,347.4,221.1,347.9,221.5z"/>
		<path class="st0" d="M344.3,218.9c-0.4-0.3-0.8-0.6-1.2-0.9C343.5,218.3,343.9,218.6,344.3,218.9z"/>
	</g>
	<g>
		<path class="st0" d="M135.9,265.3c-2.2-0.3-4.4-0.6-6.6-1C131.5,264.7,133.7,265,135.9,265.3z"/>
	</g>
	<path class="st0" d="M393,198.9l8.8-42.2c0.5-2.2-0.1-4.6-1.6-6.3c-1.5-1.8-3.7-2.8-6-2.7c-41.7,0.9-64.3,21.3-75.1,35.3
		c-8.7-13.3-25.3-25.1-48.2-34.1c-11.4-4.5-24.1-8.2-37.6-11.1l1.4-33.3c0.2-4.1-3.1-7.6-7.2-7.8c-4.1-0.2-98.9-3.5-136.1,45.9
		c-14.9,4.8-28,10.4-38.6,15.6c-17.4,8.6-41.8,24.1-50.2,35.3c-2.8,3.8-4.1,6.5,0.3,10.8c10.4,10.4,53.1,43,109.8,56.7
		c1,4.5,3,11.2,7.2,17.9c6.7,10.9,20.1,24.3,46.5,26.5c0.2,0,0.4,0,0.6,0c1.9,0,3.7-0.7,5.1-2c1.5-1.4,2.4-3.4,2.4-5.5v-31
		c35.8-1.1,69.7-7.4,96.5-17.9c22.9-9.1,39.5-20.9,48.2-34.1c10.7,14,33.4,34.3,75.1,35.3c0.1,0,0.1,0,0.2,0c2.2,0,4.3-1,5.8-2.7
		c1.5-1.8,2-4.1,1.6-6.3L393,198.9z M385.1,163.3l-7.1,34.1c0,0-0.4,1.4,0,3.1c0,0,0,0,0,0l7.1,34.1c-37.6-4.2-53.8-27.3-58.5-35.6
		C331.2,190.6,347.5,167.5,385.1,163.3z M265.4,235c-27.9,11-64.2,17.1-102.3,17.1c-20.2,0-39.1-3.3-55.9-8.1
		c21.5-15.3,24.3-36.2,22.1-46.6c-0.9-4.1-4.8-6.7-8.9-5.9c-4.1,0.9-6.7,4.8-5.8,8.9c0.2,1,4,23.4-26.5,37.3
		c-9.7-3.7-18.4-7.6-25.7-11.4c-20.9-10.6-36.3-21.9-44.1-28.4c6.2-5.8,21.1-16.8,44-27.7c23.4-11.2,59.9-24.5,100.8-24.5
		c38.1,0,74.4,6.1,102.3,17.1c24.8,9.8,41,22.9,44.9,36.1C306.4,212.2,290.2,225.3,265.4,235z M159.5,289.2
		c-18.6-4.1-26.7-16.1-30.2-24.9c9.7,1.6,19.8,2.6,30.2,2.8V289.2z M218.4,134.9c-17.5-2.8-36.2-4.3-55.2-4.3
		c-14.3,0-28.1,1.5-41,3.9c31.6-20.2,79-22.8,97.2-23L218.4,134.9z"/>
</g>
</svg>
