<?xml version="1.0" encoding="utf-8"?>
<!-- Generator: Adobe Illustrator 23.0.4, SVG Export Plug-In . SVG Version: 6.00 Build 0)  -->
<svg version="1.1" id="Capa_1" xmlns="http://www.w3.org/2000/svg" xmlns:xlink="http://www.w3.org/1999/xlink" x="0px" y="0px"
	 viewBox="0 0 335.1 335.1" style="enable-background:new 0 0 335.1 335.1;" xml:space="preserve">
<style type="text/css">
	.st0{fill:#F7B923;}
</style>
<g>
	<g>
		<polygon class="st0" points="55.7,149.9 55.6,149.9 61.1,176.6 		"/>
	</g>
	<path class="st0" d="M286.5,92.1c-6.8-8.8-16.5-13.7-28.8-14.8V40.6c0-4.2-3.4-7.5-7.5-7.5h-25.5V7.5c0-4.2-3.4-7.5-7.5-7.5h-33.1
		c-4.2,0-7.5,3.4-7.5,7.5v42.4h-18V22.5c0-4.2-3.4-7.5-7.5-7.5h-33.1c-4.2,0-7.5,3.4-7.5,7.5V31H84.9c-4.2,0-7.5,3.4-7.5,7.5v38.8
		c-12.3,1-22,6-28.8,14.8c-15.1,19.4-9.8,50.5-9.5,51.8c0,0,37.7,185.2,37.7,185.2c0.7,3.5,3.8,6,7.4,6H251c3.6,0,6.7-2.5,7.4-6
		c0,0,37.7-185.2,37.7-185.2C296.3,142.5,301.6,111.5,286.5,92.1z M90.2,320l-34.6-170h35.5c5.6,24.6,38.3,44.2,76.4,44.2
		c38.1,0,70.8-19.6,76.4-44.2h35.5l-34.6,170H90.2z M77.4,92.4V135H53.1c-0.6-9.4,0.1-24.4,7.3-33.7C64.4,96.2,70,93.3,77.4,92.4z
		 M92.4,46h18v110.3c-3.3-4.3-5.1-9-5.1-13.8c0-4.2-3.4-7.5-7.5-7.5h-5.4L92.4,46L92.4,46z M242.7,135h-5.4c-4.2,0-7.5,3.4-7.5,7.5
		c0,4.8-1.9,9.5-5.1,13.8V48.1h18L242.7,135L242.7,135z M191.6,15h18v153.7c-5.3,3-11.4,5.4-18,7.2L191.6,15L191.6,15z M176.6,178.7
		c-3,0.3-6,0.4-9,0.4c-3,0-6-0.2-9-0.4V64.9h18L176.6,178.7L176.6,178.7z M125.5,30h18v146c-6.6-1.8-12.7-4.3-18-7.2V30z M281.9,135
		h-24.2V92.4c7.4,0.9,12.9,3.8,16.9,8.9C282.3,111.1,282.5,126.5,281.9,135z"/>
	<path class="st0" d="M210.7,220.6c-11.6-8.1-27-12.6-43.2-12.6s-31.6,4.5-43.2,12.6c-12.5,8.7-19.3,20.6-19.3,33.4
		c0,12.8,6.9,24.7,19.3,33.4c11.6,8.1,27,12.6,43.2,12.6c16.2,0,31.6-4.5,43.2-12.6c12.5-8.7,19.3-20.6,19.3-33.4
		C230,241.2,223.2,229.3,210.7,220.6z M167.5,285c-25.7,0-47.5-14.2-47.5-31s21.7-31,47.5-31c25.7,0,47.5,14.2,47.5,31
		S193.3,285,167.5,285z"/>
	<polygon class="st0" points="244,150.1 244,150.1 244,150.1 	"/>
	<g>
		<path class="st0" d="M55.4,111.3c-2.3,7.3-2.7,15.6-2.4,21.9C52.7,126.9,53.1,118.7,55.4,111.3z"/>
	</g>
	<g>
		<path class="st0" d="M171.9,223.2c0.6,0,1.3,0.1,1.9,0.2C173.1,223.3,172.5,223.2,171.9,223.2z"/>
		<path class="st0" d="M173.8,284.6c-0.6,0.1-1.3,0.1-1.9,0.2C172.5,284.8,173.1,284.7,173.8,284.6z"/>
	</g>
</g>
</svg>
