<?xml version="1.0" encoding="utf-8"?>
<!-- Generator: Adobe Illustrator 23.0.4, SVG Export Plug-In . SVG Version: 6.00 Build 0)  -->
<svg version="1.1" id="Capa_1" xmlns="http://www.w3.org/2000/svg" xmlns:xlink="http://www.w3.org/1999/xlink" x="0px" y="0px"
	 viewBox="0 0 330.8 330.8" style="enable-background:new 0 0 330.8 330.8;" xml:space="preserve">
<style type="text/css">
	.st0{fill:#F7B923;}
</style>
<g>
	<g>
		<path class="st0" d="M293,216.2c0.3,0.1,0.6,0.3,0.9,0.4C293.6,216.4,293.3,216.3,293,216.2z"/>
		<path class="st0" d="M295.2,217.3c0.3,0.2,0.6,0.4,0.9,0.6C295.8,217.6,295.5,217.5,295.2,217.3z"/>
		<path class="st0" d="M298.8,220.5c0.2,0.3,0.5,0.6,0.7,0.9C299.3,221.1,299,220.8,298.8,220.5z"/>
		<path class="st0" d="M300.4,223.1c0.2,0.5,0.4,1,0.6,1.6C300.8,224.1,300.6,223.6,300.4,223.1z"/>
		<path class="st0" d="M290.5,215.4c0.3,0.1,0.5,0.1,0.8,0.2C291.1,215.6,290.8,215.5,290.5,215.4z"/>
		<path class="st0" d="M297.9,219.5c-0.3-0.3-0.5-0.5-0.8-0.8C297.4,219,297.7,219.2,297.9,219.5z"/>
		<path class="st0" d="M29.5,232.3c-0.1-0.3-0.2-0.5-0.2-0.8C29.3,231.8,29.4,232.1,29.5,232.3z"/>
		<path class="st0" d="M38.5,241.9c-0.5-0.2-1.1-0.4-1.6-0.6C37.4,241.6,37.9,241.8,38.5,241.9z"/>
		<path class="st0" d="M35.3,240.4c-0.3-0.2-0.6-0.5-0.9-0.7C34.7,240,35,240.2,35.3,240.4z"/>
		<path class="st0" d="M32.6,238.1c0.2,0.3,0.5,0.6,0.8,0.8C33.1,238.6,32.8,238.4,32.6,238.1z"/>
		<path class="st0" d="M30.4,234.8c-0.1-0.3-0.3-0.6-0.4-0.9C30.1,234.2,30.3,234.5,30.4,234.8z"/>
		<path class="st0" d="M31.7,237c-0.2-0.3-0.4-0.6-0.6-0.9C31.3,236.4,31.5,236.7,31.7,237z"/>
	</g>
	<g>
		<path class="st0" d="M21.7,144.7c0.1,0.1,0.3,0.3,0.4,0.4C22,145,21.9,144.9,21.7,144.7z"/>
		<path class="st0" d="M277.7,70.5c0.5,0.3,1,0.7,1.5,1C278.7,71.1,278.2,70.8,277.7,70.5z"/>
		<path class="st0" d="M15.6,133.3c-0.1-0.3-0.1-0.5-0.2-0.8C15.5,132.8,15.6,133.1,15.6,133.3z"/>
		<path class="st0" d="M15.2,131c0-0.2-0.1-0.5-0.1-0.7C15.2,130.6,15.2,130.8,15.2,131z"/>
		<path class="st0" d="M296.1,85.4c-0.4-0.4-0.7-0.8-1.1-1.1C295.4,84.6,295.8,85,296.1,85.4z"/>
		<path class="st0" d="M298.2,87.6c0.5,0.5,0.9,1,1.4,1.5C299.2,88.6,298.7,88.1,298.2,87.6z"/>
		<path class="st0" d="M286.3,76.6c0.5,0.4,1.1,0.8,1.6,1.3C287.4,77.4,286.8,77,286.3,76.6z"/>
		<path class="st0" d="M16.2,135.5c-0.1-0.2-0.1-0.5-0.2-0.7C16.1,135,16.1,135.2,16.2,135.5z"/>
		<path class="st0" d="M290.3,79.9c0.5,0.4,1,0.8,1.4,1.2C291.2,80.7,290.7,80.3,290.3,79.9z"/>
		<path class="st0" d="M282.1,73.5c0.6,0.4,1.1,0.8,1.6,1.2C283.2,74.3,282.7,73.9,282.1,73.5z"/>
		<path class="st0" d="M26.1,148.3c-0.3-0.2-0.5-0.3-0.8-0.5C25.6,148,25.8,148.1,26.1,148.3z"/>
		<path class="st0" d="M16.9,137.5c0-0.1-0.1-0.2-0.1-0.3C16.9,137.3,16.9,137.4,16.9,137.5z"/>
		<path class="st0" d="M29.9,150.3c-0.2-0.1-0.5-0.2-0.7-0.3C29.4,150.1,29.6,150.2,29.9,150.3z"/>
		<path class="st0" d="M27.9,149.4c-0.3-0.1-0.5-0.3-0.8-0.5C27.4,149.1,27.7,149.2,27.9,149.4z"/>
		<path class="st0" d="M18.2,140c-0.1-0.2-0.2-0.4-0.4-0.6C18,139.6,18.1,139.8,18.2,140z"/>
		<path class="st0" d="M19.4,141.9c-0.2-0.2-0.3-0.5-0.5-0.7C19.1,141.4,19.3,141.7,19.4,141.9z"/>
		<path class="st0" d="M24.3,147c-0.2-0.2-0.4-0.3-0.7-0.5C23.9,146.7,24.1,146.9,24.3,147z"/>
		<path class="st0" d="M20.7,143.6c-0.2-0.2-0.3-0.4-0.5-0.6C20.4,143.2,20.5,143.4,20.7,143.6z"/>
	</g>
	<path class="st0" d="M80.1,107.9c-2,0-3.9,0.8-5.3,2.2c-1.4,1.4-2.2,3.3-2.2,5.3c0,2,0.8,3.9,2.2,5.3c1.4,1.4,3.3,2.2,5.3,2.2
		s3.9-0.8,5.3-2.2c1.4-1.4,2.2-3.3,2.2-5.3c0-2-0.8-3.9-2.2-5.3C84,108.7,82.1,107.9,80.1,107.9z"/>
	<path class="st0" d="M165.4,107.9c-2,0-3.9,0.8-5.3,2.2c-1.4,1.4-2.2,3.3-2.2,5.3c0,2,0.8,3.9,2.2,5.3c1.4,1.4,3.3,2.2,5.3,2.2
		c2,0,3.9-0.8,5.3-2.2c1.4-1.4,2.2-3.3,2.2-5.3c0-2-0.8-3.9-2.2-5.3C169.3,108.7,167.3,107.9,165.4,107.9z"/>
	<path class="st0" d="M250.6,107.9c-2,0-3.9,0.8-5.3,2.2c-1.4,1.4-2.2,3.3-2.2,5.3c0,2,0.8,3.9,2.2,5.3c1.4,1.4,3.3,2.2,5.3,2.2
		c2,0,3.9-0.8,5.3-2.2c1.4-1.4,2.2-3.3,2.2-5.3c0-2-0.8-3.9-2.2-5.3C254.5,108.7,252.6,107.9,250.6,107.9z"/>
	<path class="st0" d="M125,70.1c-2,0-3.9,0.8-5.3,2.2c-1.4,1.4-2.2,3.3-2.2,5.3c0,2,0.8,3.9,2.2,5.3c1.4,1.4,3.3,2.2,5.3,2.2
		c2,0,3.9-0.8,5.3-2.2c1.4-1.4,2.2-3.3,2.2-5.3c0-2-0.8-3.9-2.2-5.3C128.9,70.9,127,70.1,125,70.1z"/>
	<path class="st0" d="M205.8,70.1c-2,0-3.9,0.8-5.3,2.2c-1.4,1.4-2.2,3.3-2.2,5.3c0,2,0.8,3.9,2.2,5.3c1.4,1.4,3.3,2.2,5.3,2.2
		c2,0,3.9-0.8,5.3-2.2c1.4-1.4,2.2-3.3,2.2-5.3c0-2-0.8-3.9-2.2-5.3C209.7,70.9,207.8,70.1,205.8,70.1z"/>
	<path class="st0" d="M312.4,244.1c2.7-4.4,4.3-9.6,4.3-15.2c0-9.9-5-18.7-12.7-23.8c5.2-5.6,8.4-13.2,8.4-21.4
		c0-7.2-2.5-13.9-6.6-19.2c14.5-5.7,24.8-19.9,24.8-36.4c0-28-17.7-54.1-49.9-73.4c-31-18.6-72-28.8-115.5-28.8
		c-43.5,0-84.5,10.2-115.5,28.8C17.7,74,0,100,0,128.1c0,16.5,10.3,30.6,24.8,36.4c-4.1,5.3-6.6,12-6.6,19.2
		c0,8.3,3.2,15.8,8.4,21.4C19,210.3,14,219,14,228.9c0,5.6,1.6,10.8,4.3,15.2c-9,2.3-18.3,8.5-18.3,24.8c0,19.9,14.4,36,32.1,36
		h266.6c17.7,0,32.1-16.2,32.1-36C330.8,252.6,321.4,246.4,312.4,244.1z M298.7,289.9H32.1c-9.4,0-17-9.4-17-21
		c0-6.7,1.2-11.1,17-11.1h266.6c15.8,0,17,4.4,17,11.1C315.7,280.4,308.1,289.9,298.7,289.9z M281,200.1h-53
		c3.9-1.9,6.9-4.1,9.7-6.2c5.2-3.9,9.3-6.9,18.1-6.9s12.9,3.1,18.1,6.9c2.7,2,5.6,4.2,9.3,6C282.5,200.1,281.7,200.1,281,200.1z
		 M137.6,200.1c3.9-1.9,6.9-4.1,9.7-6.2c5.2-3.9,9.3-6.9,18.1-6.9s12.9,3.1,18.1,6.9c2.7,2,5.8,4.3,9.7,6.2H137.6z M49.7,200.1
		c-0.7,0-1.5-0.1-2.2-0.2c3.7-1.8,6.7-4,9.3-6c5.2-3.9,9.3-6.9,18.1-6.9s12.9,3.1,18.1,6.9c2.7,2,5.8,4.3,9.7,6.2L49.7,200.1
		L49.7,200.1z M296.7,188.6c-6.1-0.8-9.6-3.5-13.9-6.7c-5.9-4.4-13.3-9.9-27.1-9.9s-21.2,5.5-27.1,9.9c-5.2,3.9-9.3,6.9-18.1,6.9
		s-12.9-3.1-18.1-6.9c-5.9-4.4-13.3-9.9-27.1-9.9c-13.8,0-21.2,5.5-27.1,9.9c-5.2,3.9-9.3,6.9-18.1,6.9c-8.8,0-12.9-3.1-18.1-6.9
		c-5.9-4.4-13.3-9.9-27.1-9.9c-13.8,0-21.2,5.5-27.1,9.9c-4.3,3.2-7.9,5.8-13.9,6.7c-0.5-1.6-0.8-3.2-0.8-4.9
		c0-9.1,7.4-16.5,16.5-16.5H281c9.1,0,16.5,7.4,16.5,16.5C297.5,185.4,297.2,187,296.7,188.6z M291.7,152.1H39.1
		c-13.3,0-24.1-10.8-24.1-24.1c0-22.6,15.1-44.1,42.6-60.5c28.7-17.2,66.9-26.7,107.8-26.7c40.8,0,79.1,9.5,107.8,26.7
		c27.5,16.5,42.6,38,42.6,60.5C315.7,141.4,304.9,152.1,291.7,152.1z M42.8,215.2H288c7.6,0,13.8,6.2,13.8,13.8
		c0,7.6-6.2,13.8-13.8,13.8H42.8c-7.6,0-13.8-6.2-13.8-13.8C29,221.4,35.2,215.2,42.8,215.2z"/>
</g>
</svg>
