<?xml version="1.0" encoding="utf-8"?>
<!-- Generator: Adobe Illustrator 23.0.4, SVG Export Plug-In . SVG Version: 6.00 Build 0)  -->
<svg version="1.1" id="Capa_1" xmlns="http://www.w3.org/2000/svg" xmlns:xlink="http://www.w3.org/1999/xlink" x="0px" y="0px"
	 viewBox="0 0 400.5 400.5" style="enable-background:new 0 0 400.5 400.5;" xml:space="preserve">
<style type="text/css">
	.st0{fill:#F7B923;}
</style>
<g>
	<path class="st0" d="M371.6,171.4h-1.4c-4.7-21-28.4-37-56.9-37H87.2c-28.5,0-52.3,16-56.9,37h-1.4C13,171.4,0,184.3,0,200.3
		c0,15.9,13,28.9,28.9,28.9h1.4c4.7,21,28.4,37,56.9,37h226.1c28.5,0,52.3-16,56.9-37h1.2c0.1,0,0.1,0,0.2,0
		c15.9,0,28.9-13,28.9-28.9C400.5,184.3,387.6,171.4,371.6,171.4z M371.6,214.1c-0.1,0-0.1,0-0.2,0h-20.8c5.6-2.1,10.1-4.9,14.2-7.5
		c6.1-3.8,11.5-7.2,20.4-8.4c0.1,0.7,0.2,1.3,0.2,2C385.5,207.9,379.3,214.1,371.6,214.1z M87.2,251.1c-19.4,0-36.3-9.5-41.3-21.9
		l308.7,0c-5,12.5-21.9,21.9-41.3,21.9L87.2,251.1L87.2,251.1z M15,200.3c0-0.7,0.1-1.4,0.2-2c9.1,1.2,14.5,4.6,20.6,8.4
		c4.2,2.6,8.6,5.4,14.2,7.5H28.9C21.3,214.1,15,207.9,15,200.3z M313.3,149.4c19.4,0,36.3,9.5,41.3,21.9H45.9
		c5-12.5,21.9-21.9,41.3-21.9H313.3z M236.5,206.6c7.6-4.8,14.2-8.9,28.1-8.9s20.5,4.1,28.1,8.9c4.2,2.6,8.6,5.4,14.2,7.5h-84.7
		C227.9,212,232.3,209.2,236.5,206.6z M200.4,202.8c-13.9,0-20.5-4.1-28.1-8.9c-4.2-2.6-8.6-5.4-14.2-7.5h84.7
		c-5.6,2.1-10.1,4.9-14.2,7.5C220.9,198.7,214.3,202.8,200.4,202.8z M164.3,206.6c4.2,2.6,8.6,5.4,14.2,7.5H93.8
		c5.6-2.1,10.1-4.9,14.2-7.5c7.6-4.8,14.2-8.9,28.1-8.9C150.1,197.8,156.6,201.9,164.3,206.6z M328.8,202.8
		c-13.9,0-20.5-4.1-28.1-8.9c-4.2-2.6-8.6-5.4-14.2-7.5h84.7c-5.6,2.1-10.1,4.9-14.2,7.5C349.3,198.7,342.7,202.8,328.8,202.8z
		 M114.3,186.4c-5.6,2.1-10.1,4.9-14.2,7.5c-7.6,4.8-14.2,8.9-28.1,8.9c-13.9,0-20.5-4.1-28.1-8.9c-4.2-2.6-8.6-5.4-14.2-7.5H114.3z
		"/>
</g>
</svg>
