<?xml version="1.0" encoding="utf-8"?>
<!-- Generator: Adobe Illustrator 23.0.4, SVG Export Plug-In . SVG Version: 6.00 Build 0)  -->
<svg version="1.1" id="Layer_1" xmlns="http://www.w3.org/2000/svg" xmlns:xlink="http://www.w3.org/1999/xlink" x="0px" y="0px"
	 viewBox="0 0 512 512" style="enable-background:new 0 0 512 512;" xml:space="preserve">
<style type="text/css">
	.st0{fill:#FFFFFF;}
</style>
<path class="st0" d="M32.5,318.5c-5.3,0-9.6-4.3-9.6-9.6v-18.3c0-4.8,3.6-8.9,8.4-9.5l1.8-0.2V213l-0.6-0.6
	c-6.1-5.9-9.5-13.9-9.5-22.4l0-13.6c0,0,0-0.1,0-0.2c0-0.1,0-0.3,0-0.5l0-0.1c0-0.2,0.1-0.3,0.1-0.5l0-0.1c0.1-0.2,0.1-0.4,0.2-0.5
	l14.2-35.7c1.8-4.6,6.2-7.6,11.2-7.6h33.9c3,0,5.5,2.5,5.5,5.5c0,3-2.5,5.5-5.5,5.5H48l-11.5,28.8h240.9L266,142.3H117.4
	c-3,0-5.5-2.5-5.5-5.5c0-3,2.5-5.5,5.5-5.5h147.9c4.9,0,9.3,3,11.2,7.6l14.1,35.5l0.1,0.2l0,0c0,0,0,0,0,0.1
	c0.1,0.2,0.1,0.3,0.2,0.5l0,0.2c0,0.1,0.1,0.3,0.1,0.5l0,0.1c0,0.2,0,0.4,0,0.5l0,0.1v0.1l0,0.1v13.4c0,6.5-2,12.7-5.8,18l-0.4,0.5
	v72.2l1.7,0.2c4.7,0.7,8.2,4.7,8.2,9.5v18.3c0,5.3-4.3,9.6-9.6,9.6H32.5z M33.8,307.5h250V292h-250V307.5z M44,281h229.9v-62.9
	l-2.7,1.1c-3.6,1.4-7.5,2.1-11.4,2.1c-9.4,0-18.2-4.2-24.2-11.5l-1.5-1.9l-1.5,1.9c-6,7.3-14.8,11.5-24.2,11.5s-18.2-4.2-24.2-11.5
	l-1.5-1.9l-1.5,1.9c-6,7.3-14.8,11.5-24.2,11.5s-18.2-4.2-24.2-11.5l-1.5-1.9l-1.5,1.9c-6,7.3-14.8,11.5-24.2,11.5
	c-9.4,0-18.2-4.2-24.2-11.5l-1.5-1.9l-1.5,1.9c-6,7.3-14.8,11.5-24.2,11.5c-2.6,0-5.2-0.3-7.7-1l-2.5-0.6V281z M239.6,190.1
	c0,11.2,9.1,20.2,20.2,20.2c11.1,0,20.2-9.1,20.2-20.2v-8h-40.4V190.1z M188.2,190.1c0,11.2,9.1,20.2,20.2,20.2
	c11.1,0,20.2-9.1,20.2-20.2v-8h-40.4V190.1z M136.8,190.1c0,11.2,9.1,20.2,20.2,20.2c11.2,0,20.2-9.1,20.2-20.2v-8h-40.4V190.1z
	 M85.4,190.1c0,11.2,9.1,20.2,20.2,20.2c11.2,0,20.2-9.1,20.2-20.2v-8H85.4V190.1z M33.9,190.1c0,11.2,9.1,20.2,20.2,20.2
	c11.1,0,20.2-9.1,20.2-20.2v-8H33.9V190.1z"/>
<path class="st0" d="M428.7,420.4c-11.8,0-22.8-4.6-31.1-12.9c-7.3-7.3-11.8-16.9-12.7-27.1l-0.2-1.8H127.3l-0.2,1.8
	c-0.9,10.2-5.4,19.9-12.7,27.1c-8.3,8.3-19.4,12.9-31.1,12.9s-22.8-4.6-31.1-12.9c-7.3-7.3-11.8-16.9-12.7-27.1l-0.2-1.8H21.6
	c-10.8,0-19.6-8.8-19.6-19.6V111.6C2,100.8,10.8,92,21.6,92h334.4c6.2,0,11.7,4.1,13.5,10.1l8.6,29.1c0.9,2.9-0.8,6-3.7,6.8
	c-0.5,0.2-1,0.2-1.6,0.2c-2.4,0-4.6-1.6-5.3-3.9l-8.6-29.1c-0.4-1.3-1.6-2.2-3-2.2H21.6c-4.8,0-8.7,3.9-8.7,8.7v247.3
	c0,4.8,3.9,8.7,8.7,8.7h18.6l0.4-1.5c1.9-7.9,5.9-15.1,11.6-20.8c8.3-8.3,19.4-12.9,31.1-12.9s22.8,4.6,31.1,12.9
	c5.7,5.7,9.8,12.9,11.6,20.8l0.4,1.5h178.6v-194c0-6.9,5.6-12.6,12.6-12.6h93.9c4.8,0,9.4,2.3,12.3,6.1c0.1,0.2,0.3,0.4,0.4,0.6
	l44.1,77.5l36.9,30.2c3,2.5,4.8,6.1,4.8,10v75c0,10-8.2,18.2-18.2,18.2h-19.2l-0.2,1.8c-0.9,10.2-5.4,19.9-12.7,27.1
	C451.5,415.8,440.4,420.4,428.7,420.4z M428.7,343.3c-8.8,0-17.1,3.4-23.4,9.7c-12.9,12.9-12.9,33.9,0,46.7
	c6.2,6.2,14.5,9.7,23.4,9.7c8.8,0,17.1-3.4,23.4-9.7c6.2-6.2,9.7-14.5,9.7-23.4s-3.4-17.1-9.7-23.4
	C445.8,346.8,437.5,343.3,428.7,343.3z M83.3,343.3c-8.8,0-17.1,3.4-23.4,9.7c-6.2,6.2-9.7,14.5-9.7,23.4c0,8.8,3.4,17.1,9.7,23.4
	s14.5,9.7,23.4,9.7s17.1-3.4,23.4-9.7c6.2-6.2,9.7-14.5,9.7-23.4c0-8.8-3.4-17.1-9.7-23.4C100.5,346.8,92.2,343.3,83.3,343.3z
	 M428.7,332.4c11.8,0,22.8,4.6,31.1,12.9c5.7,5.7,9.8,12.9,11.6,20.8l0.4,1.5h20c4,0,7.2-3.2,7.2-7.2v-24h-18.4
	c-6.2,0-11.5-4.2-12.9-10.3l-3.6-15.7c-0.9-4,0-8.1,2.5-11.2c2.5-3.2,6.3-5,10.4-5h22v-9.8L460.6,253c-0.5-0.4-1-0.9-1.3-1.5
	l-44.4-78l-0.2-0.2c-0.8-0.8-2-1.3-3.2-1.3h-95.4v195.6h69.4l0.4-1.5c1.9-7.9,5.9-15.1,11.6-20.8
	C405.8,336.9,416.9,332.4,428.7,332.4z M477,305.2c-1,0-1.5,0.5-1.8,0.9c-0.5,0.6-0.6,1.3-0.4,2l3.6,15.6c0.2,1,1.2,1.8,2.2,1.8H499
	v-20.2H477z"/>
<path class="st0" d="M428.7,398.5c-5.9,0-11.5-2.3-15.7-6.5c-4.2-4.2-6.5-9.7-6.5-15.7c0-5.9,2.3-11.5,6.5-15.7
	c4.2-4.2,9.7-6.5,15.7-6.5s11.5,2.3,15.7,6.5c4.2,4.2,6.5,9.7,6.5,15.7c0,5.9-2.3,11.5-6.5,15.7S434.6,398.5,428.7,398.5z
	 M428.7,365.2c-3,0-5.8,1.2-7.9,3.3c-2.1,2.1-3.3,4.9-3.3,7.9c0,3,1.2,5.8,3.3,7.9c2.1,2.1,4.9,3.3,7.9,3.3s5.8-1.2,7.9-3.3
	s3.3-4.9,3.3-7.9c0-3-1.2-5.8-3.3-7.9C434.4,366.4,431.6,365.2,428.7,365.2z"/>
<path class="st0" d="M83.3,398.5c-5.9,0-11.5-2.3-15.7-6.5c-4.2-4.2-6.5-9.7-6.5-15.7s2.3-11.5,6.5-15.7c4.2-4.2,9.7-6.5,15.7-6.5
	c5.9,0,11.5,2.3,15.7,6.5c4.2,4.2,6.5,9.7,6.5,15.7c0,5.9-2.3,11.5-6.5,15.7C94.8,396.2,89.3,398.5,83.3,398.5z M83.3,365.2
	c-3,0-5.8,1.2-7.9,3.3c-2.1,2.1-3.3,4.9-3.3,7.9c0,3,1.2,5.8,3.3,7.9c2.1,2.1,4.9,3.3,7.9,3.3s5.8-1.2,7.9-3.3
	c2.1-2.1,3.3-4.9,3.3-7.9c0-3-1.2-5.8-3.3-7.9C89.1,366.4,86.3,365.2,83.3,365.2z"/>
<path class="st0" d="M337.8,263.1c-4.2,0-7.6-3.4-7.6-7.6v-58c0-4.2,3.4-7.6,7.6-7.6h61.8c2.7,0,5.2,1.5,6.6,3.8l27.7,48.7
	c2.5,4.3,2.4,9.5-0.1,13.8c-2.5,4.3-7,6.9-11.9,6.9H337.8z M341.2,252.2h80.6c1,0,1.9-0.5,2.5-1.4c0.5-0.9,0.5-2,0-2.9l-26.7-47
	h-56.4V252.2z"/>
</svg>
