<?xml version="1.0" encoding="utf-8"?>
<!-- Generator: Adobe Illustrator 23.0.4, SVG Export Plug-In . SVG Version: 6.00 Build 0)  -->
<svg version="1.1" id="Layer_1" xmlns="http://www.w3.org/2000/svg" xmlns:xlink="http://www.w3.org/1999/xlink" x="0px" y="0px"
	 viewBox="0 0 479 479" style="enable-background:new 0 0 479 479;" xml:space="preserve">
<style type="text/css">
	.st0{fill:none;}
	.st1{fill:#FFFFFF;}
</style>
<g>
	<path class="st0" d="M202.5,326.3h6.1c3.9,0,7-3.1,7-7v-24c0-5,4-9,9-9h95.8c0.5,0,1,0,1.6,0.1c0.3,0,0.6,0,0.8,0.1
		c8.2-14.3,12.6-30.5,12.6-47c0.1-19.8-6-38.8-17.6-54.9h-53.2c-12.6-0.1-24.6-6-32.3-16h-54.5c-20.4,17.9-32,43.7-32,70.9
		C145.6,277.2,167.9,311.3,202.5,326.3z"/>
	<path class="st0" d="M97.8,136.7v14h137.6c0.5-0.1,1-0.1,1.5-0.1c3.2,0,6.1,1.7,7.7,4.4c4,7.2,11.6,11.7,19.8,11.7h54.9v-45.9
		h-54.9c-8.2,0-15.8,4.5-19.8,11.6c-1.6,2.8-4.6,4.5-7.8,4.5c-0.7,0-1.3-0.1-2-0.2H97.8z"/>
	<path class="st0" d="M320.3,304.4h-86.8v15c0,13.8-11.2,25-25,25H97.8v14h284.8C378.1,327.5,351.5,304.4,320.3,304.4z"/>
	<path class="st0" d="M384.7,70c-40.2-34.1-91.2-52.8-143.8-52.8c-65.5,0-127.3,28.6-169.6,78.4c-38.5,45.2-57,102.8-52.3,161.9
		c4.7,59.2,32.3,113,77.4,151.5c40.2,34.2,91.4,53,144.2,53c32.4,0,63.8-6.9,93.3-20.5c38.6-17.8,71.2-46.2,94.1-82.1
		S463,282.2,463,239.7c0-6-0.2-12.1-0.7-18.1c-2.3-29.3-10.2-57.4-23.6-83.6C425.3,111.8,407.1,89,384.7,70z M392.2,376.2H88.8
		c-5,0-9-4-9-9v-31.9c0-5,4-9,9-9h79.7c-22.6-18.7-37.3-46-40.2-75.3c-3-29.5,6-59.4,24.7-82.4H88.8c-5,0-9-4-9-9v-31.9c0-5,4-9,9-9
		h143.4c7.7-10,19.7-15.9,32.3-16h128.7v18h-55.9v14h55.9v18h-55.9v14h55.9v18h-54.2c9.4,16.7,14.4,35.7,14.3,54.9
		c0,17.2-4.1,34.4-11.7,49.8c35.1,9.6,59.5,41.4,59.6,77.9C401.2,372.2,397.1,376.2,392.2,376.2z"/>
	<path class="st1" d="M341.6,289.3c7.6-15.4,11.7-32.6,11.7-49.8c0-19.2-4.9-38.2-14.3-54.9h54.2v-18h-55.9v-14h55.9v-18h-55.9v-14
		h55.9v-18H264.4c-12.6,0.1-24.6,6-32.3,16H88.8c-5,0-9,4-9,9v31.9c0,5,4,9,9,9h64.1c-18.7,23-27.7,52.9-24.7,82.4
		c3,29.3,17.6,56.6,40.2,75.3H88.8c-5,0-9,4-9,9v31.9c0,5,4,9,9,9h303.4c5,0,9-4,9-9C401.1,330.8,376.7,298.9,341.6,289.3z
		 M244.6,132.4c4-7.2,11.6-11.6,19.8-11.6h54.9v45.9h-54.9c-8.2,0-15.8-4.5-19.8-11.7c-1.6-2.7-4.5-4.4-7.7-4.4c-0.5,0-1,0-1.5,0.1
		H97.8v-14h137.1c0.6,0.1,1.3,0.2,2,0.2C240,136.9,243,135.2,244.6,132.4z M177.7,168.7h54.5c7.7,10,19.7,15.9,32.3,16h53.2
		c11.6,16.1,17.7,35,17.6,54.9c0,16.5-4.4,32.7-12.6,47c-0.3,0-0.6,0-0.8-0.1c-0.5,0-1-0.1-1.6-0.1h-95.8c-5,0-9,4-9,9v24
		c0,3.9-3.1,7-7,7h-6.1c-34.5-15.1-56.8-49.1-56.8-86.8C145.7,212.4,157.4,186.6,177.7,168.7z M97.8,358.3v-14h110.8
		c13.8,0,25-11.2,25-25v-15h86.8c31.2,0,57.7,23.1,62.2,53.9H97.8z"/>
	<path class="st1" d="M480.7,226.6C473.8,99,368.4-1,240.6-1c-2.1,0-4.3,0-6.5,0.1c-63,1.7-121.9,27.4-165.9,72.6
		C24.3,116.8,0,176.3,0,239.3c0,6.6,0.3,13.2,0.8,19.6c4.9,60.6,32.3,116.6,77,157.7C122.4,457.5,180,480,240.3,480c0,0,0,0,0,0
		c6.5,0,13.1-0.3,19.6-0.8c62.8-5.1,120.2-34,161.7-81.5C463.1,350.3,484,289.5,480.7,226.6z M463,239.7c0,42.5-12.2,84-35.1,119.8
		s-55.5,64.2-94.1,82.1C304.3,455.1,273,462,240.5,462c-52.8,0-104-18.8-144.2-53c-45.2-38.5-72.7-92.3-77.4-151.5
		c-4.7-59.2,13.8-116.7,52.3-161.9c42.4-49.8,104.2-78.4,169.6-78.4c52.6,0,103.7,18.8,143.8,52.8c22.4,19,40.6,41.9,54,68
		c13.4,26.2,21.4,54.3,23.6,83.6C462.8,227.6,463,233.7,463,239.7z"/>
</g>
</svg>
