<?xml version="1.0" encoding="iso-8859-1"?>
<!-- Generator: Adobe Illustrator 18.0.0, SVG Export Plug-In . SVG Version: 6.00 Build 0)  -->
<!DOCTYPE svg PUBLIC "-//W3C//DTD SVG 1.1//EN" "http://www.w3.org/Graphics/SVG/1.1/DTD/svg11.dtd">
<svg version="1.1" id="Capa_1" xmlns="http://www.w3.org/2000/svg" xmlns:xlink="http://www.w3.org/1999/xlink" x="0px" y="0px"
	 viewBox="0 0 406.339 406.339" style="enable-background:new 0 0 406.339 406.339;" xml:space="preserve">
<g>
	<path style="fill:#EF8829;" d="M142.66,169.27c-0.067,0.577,0.106,1.212,1.485,1.586c1.397,0.379,2.066-0.291,2.132-0.502
		l5.846-18.299c-1.39,0.425-2.768,0.866-4.134,1.322L142.66,169.27z"/>
	<path style="fill:#EF8829;" d="M201.281,144.392v25.478c0,0.442,0.753,1.109,1.888,1.109c1.135,0,1.888-0.668,1.888-1.109v-25.47
		c-0.741-0.011-1.483-0.025-2.223-0.025C202.317,144.374,201.798,144.387,201.281,144.392z"/>
	<path style="fill:#EF8829;" d="M262.193,170.856c1.06-0.327,1.583-1.155,1.486-1.588l-5.242-15.639
		c-1.371-0.463-2.754-0.91-4.146-1.342l5.751,17.999C260.191,170.775,261.109,171.189,262.193,170.856z"/>
	<path style="fill:#EF8829;" d="M380.149,196.126c-6.147,0-11.148,5.001-11.148,11.148c0,4.154-3.367,7.521-7.52,7.521
		c-4.154,0-7.521-3.367-7.521-7.521c0-0.417,0.012-0.831,0.031-1.243c-7.12,0.622-11.535,2.132-16.453,3.822
		c-6.741,2.316-14.382,4.942-28.831,4.942c-14.45,0-22.09-2.626-28.83-4.942c-6.443-2.213-12.007-4.125-23.944-4.125
		c-11.936,0-17.499,1.912-23.941,4.125c-6.741,2.316-14.381,4.942-28.83,4.942c-14.448,0-22.087-2.626-28.829-4.942
		c-6.441-2.213-12.005-4.125-23.941-4.125c-11.935,0-17.498,1.912-23.939,4.125c-6.74,2.316-14.38,4.942-28.828,4.942
		c-14.448,0-22.087-2.626-28.829-4.942c-4.918-1.689-9.332-3.2-16.452-3.822c0.02,0.412,0.031,0.826,0.031,1.243
		c0,4.154-3.367,7.521-7.521,7.521c-4.154,0-7.521-3.367-7.521-7.521c0-6.147-5.001-11.148-11.148-11.148
		c-6.147,0-11.147,5.001-11.147,11.148c0,6.147,5,11.148,11.147,11.148h353.961c6.147,0,11.148-5.001,11.148-11.148
		C391.297,201.127,386.296,196.126,380.149,196.126z"/>
	<polygon style="fill:#84BD93;" points="46.126,229.11 61.754,268.11 359.878,268.11 371.663,229.11 	"/>
	<g>
		<path style="fill:#FDD44B;" d="M128.195,173.53c0.011,0.041,0.023,0.08,0.034,0.121
			C128.217,173.611,128.206,173.57,128.195,173.53z"/>
		<path style="fill:#FDD44B;" d="M127.679,170.526c0.006,0.077,0.008,0.153,0.016,0.23
			C127.687,170.68,127.684,170.603,127.679,170.526z"/>
		<path style="fill:#FDD44B;" d="M312.399,189.814c-6.79-6.483-21.935-16.395-33.721-21.64v0c0.572,7.431-4.297,14.658-12.04,17.052
			c-1.735,0.537-3.49,0.792-5.207,0.792c-7.112,0-13.618-4.367-15.738-11.22l-8.597-26.902l2.754,8.722
			c-3.236-0.521-17.818-1.797-19.818-2.136v15.387c0,8.905-7.665,16.151-17,16.151c-9.335,0-17-7.246-17-16.151v-13.313
			c-3,0.366-18.418,2.959-20.752,3.42l-4.705,14.89c-1.271,4.111-4.307,7.607-8.356,9.524c-2.292,1.085-4.771,1.635-7.291,1.635
			c-1.751,0-3.51-0.265-5.234-0.798c-4.204-1.301-7.71-4.208-9.878-7.92c-0.2-0.342-0.371-1.195-0.544-1.195h0.003
			c-6.429,3-12.18,8.253-16.999,12.853c-4.355,4.158-8.753,7.731-13.083,10.684c10.825-0.167,16.233-1.946,22.373-4.055
			c6.74-2.316,14.38-4.923,28.828-4.923c14.449,0,22.089,2.635,28.83,4.951c6.441,2.213,12.004,4.13,23.94,4.13
			c11.936,0,17.5-1.91,23.941-4.123c6.742-2.316,14.381-4.94,28.83-4.94c14.45,0,22.09,2.626,28.831,4.942
			c6.443,2.213,12.007,4.125,23.944,4.125c5.512,0,9.641-0.416,13.149-1.073C318.729,196.115,315.435,192.712,312.399,189.814z"/>
		<path style="fill:#FDD44B;" d="M127.703,167.778c0.008-0.078,0.024-0.156,0.033-0.235
			C127.727,167.622,127.711,167.699,127.703,167.778z"/>
		<path style="fill:#FDD44B;" d="M322.143,198.628c1.155-0.223,2.252-0.47,3.295-0.741
			C324.394,198.158,323.299,198.405,322.143,198.628z"/>
		<path style="fill:#FDD44B;" d="M325.913,197.758c1.055-0.284,2.081-0.583,3.082-0.904
			C327.994,197.175,326.969,197.474,325.913,197.758z"/>
		<path style="fill:#FDD44B;" d="M278.463,166.532c-0.003-0.019-0.004-0.038-0.008-0.057
			C278.459,166.494,278.46,166.513,278.463,166.532z"/>
	</g>
	<path style="fill:#3F2D20;" d="M380.149,181.084c-7.993,0-15.157,3.604-19.964,9.266c-7.384-0.678-27.592-4.213-46.38-22.147
		c-24.733-23.613-68.293-38.871-110.971-38.871s-86.238,15.258-110.971,38.871C72.895,186.31,53.408,189.721,46.16,190.36
		c-4.807-5.668-11.974-9.276-19.972-9.276C11.748,181.084,0,192.833,0,207.274c0,13.236,9.872,24.202,22.637,25.943l14.12,38.839
		c1.081,2.972,3.905,4.951,7.068,4.951h318.688c3.163,0,5.987-1.979,7.068-4.951l14.121-38.839
		c12.766-1.74,22.637-12.707,22.637-25.943C406.339,192.833,394.591,181.084,380.149,181.084z M258.436,153.629l5.242,15.639
		c0.097,0.433-0.426,1.261-1.486,1.588c-1.084,0.333-2.001-0.081-2.151-0.57l-5.751-17.999
		C255.683,152.719,257.065,153.166,258.436,153.629z M201.281,144.392c0.517-0.005,1.036-0.018,1.553-0.018
		c0.74,0,1.482,0.014,2.223,0.025v25.47c0,0.442-0.753,1.109-1.888,1.109c-1.135,0-1.888-0.668-1.888-1.109V144.392z M142.66,169.27
		l5.328-15.893c1.367-0.456,2.745-0.897,4.134-1.322l-5.846,18.299c-0.066,0.211-0.734,0.881-2.132,0.502
		C142.766,170.482,142.593,169.846,142.66,169.27z M102.249,179.083c7.291-6.96,16.686-13.149,27.395-18.308l-1.291,3.849
		c-0.018,0.056-0.036,0.112-0.054,0.167c-1.293,4.179-0.739,8.793,1.519,12.661c2.168,3.712,5.678,6.473,9.882,7.773
		c1.723,0.533,3.489,0.798,5.24,0.798c2.521,0,5.012-0.549,7.304-1.634c4.048-1.917,7.111-5.413,8.382-9.524l8.664-27.115
		c5.586-1.108,11.257-1.958,16.95-2.527v24.646c0,8.905,7.594,16.151,16.93,16.151c9.335,0,16.93-7.246,16.93-16.151v-24.581
		c5.713,0.594,11.399,1.472,16.997,2.608l8.597,26.902c2.12,6.852,8.626,11.22,15.738,11.22c1.717,0,3.472-0.256,5.207-0.792
		c7.743-2.394,12.612-9.62,12.04-17.052c-0.086-1.128-0.291-2.26-0.638-3.381c-0.018-0.056-0.035-0.113-0.054-0.169l-1.159-3.457
		c10.374,5.08,19.486,11.131,26.592,17.916c8.597,8.208,17.424,13.862,25.577,17.772c-2.212,0.708-4.489,1.342-7.128,1.835
		c-3.506,0.656-7.653,1.064-13.159,1.064c-11.937,0-17.501-1.912-23.944-4.125c-6.74-2.316-14.381-4.941-28.831-4.941
		c-14.449,0-22.088,2.626-28.83,4.941c-6.441,2.213-12.005,4.125-23.941,4.125c-11.936,0-17.498-1.912-23.94-4.125
		c-6.741-2.316-14.381-4.941-28.83-4.941c-14.448,0-22.087,2.626-28.827,4.941c-6.441,2.213-12.004,4.125-23.939,4.125
		c-9.846,0-15.354-1.303-20.598-3C85.038,192.848,93.727,187.219,102.249,179.083z M357.244,261.965H49.093l-10.361-28.501h328.875
		L357.244,261.965z M380.149,218.422H26.188c-6.147,0-11.147-5.001-11.147-11.148c0-6.147,5-11.148,11.147-11.148
		c6.147,0,11.148,5.001,11.148,11.148c0,4.154,3.367,7.521,7.521,7.521c4.154,0,7.521-3.367,7.521-7.521
		c0-0.417-0.012-0.831-0.031-1.243c7.119,0.622,11.534,2.133,16.452,3.822c6.741,2.316,14.381,4.942,28.829,4.942
		c14.448,0,22.087-2.626,28.828-4.942c6.441-2.213,12.004-4.125,23.939-4.125c11.936,0,17.5,1.912,23.941,4.125
		c6.741,2.316,14.381,4.942,28.829,4.942c14.449,0,22.089-2.626,28.83-4.942c6.442-2.213,12.005-4.125,23.941-4.125
		c11.937,0,17.501,1.912,23.944,4.125c6.74,2.316,14.38,4.942,28.83,4.942c14.449,0,22.089-2.626,28.831-4.942
		c4.918-1.69,9.332-3.2,16.453-3.822c-0.02,0.412-0.031,0.826-0.031,1.243c0,4.154,3.367,7.521,7.521,7.521
		c4.154,0,7.52-3.367,7.52-7.521c0-6.147,5.001-11.148,11.148-11.148c6.147,0,11.148,5.001,11.148,11.148
		C391.297,213.421,386.296,218.422,380.149,218.422z"/>
</g>
<g>
</g>
<g>
</g>
<g>
</g>
<g>
</g>
<g>
</g>
<g>
</g>
<g>
</g>
<g>
</g>
<g>
</g>
<g>
</g>
<g>
</g>
<g>
</g>
<g>
</g>
<g>
</g>
<g>
</g>
</svg>
