<?xml version="1.0" encoding="utf-8"?>
<!-- Generator: Adobe Illustrator 23.0.4, SVG Export Plug-In . SVG Version: 6.00 Build 0)  -->
<svg version="1.1" id="Capa_1" xmlns="http://www.w3.org/2000/svg" xmlns:xlink="http://www.w3.org/1999/xlink" x="0px" y="0px"
	 viewBox="0 0 406.3 406.3" style="enable-background:new 0 0 406.3 406.3;" xml:space="preserve">
<style type="text/css">
	.st0{fill:#FDD44B;}
	.st1{fill:#F7B923;}
</style>
<g>
	<g>
		<path class="st0" d="M128.2,173.5c0,0,0,0.1,0,0.1C128.2,173.6,128.2,173.6,128.2,173.5z"/>
		<path class="st0" d="M127.7,170.5c0,0.1,0,0.2,0,0.2C127.7,170.7,127.7,170.6,127.7,170.5z"/>
		<path class="st0" d="M127.7,167.8c0-0.1,0-0.2,0-0.2C127.7,167.6,127.7,167.7,127.7,167.8z"/>
		<path class="st0" d="M322.1,198.6c1.2-0.2,2.3-0.5,3.3-0.7C324.4,198.2,323.3,198.4,322.1,198.6z"/>
		<path class="st0" d="M325.9,197.8c1.1-0.3,2.1-0.6,3.1-0.9C328,197.2,327,197.5,325.9,197.8z"/>
		<path class="st0" d="M278.5,166.5C278.5,166.5,278.5,166.5,278.5,166.5C278.5,166.5,278.5,166.5,278.5,166.5z"/>
	</g>
	<path class="st1" d="M380.1,181.1c-8,0-15.2,3.6-20,9.3c-7.4-0.7-27.6-4.2-46.4-22.1c-24.7-23.6-68.3-38.9-111-38.9
		s-86.2,15.3-111,38.9c-19,18.1-38.5,21.5-45.7,22.2c-4.8-5.7-12-9.3-20-9.3C11.7,181.1,0,192.8,0,207.3c0,13.2,9.9,24.2,22.6,25.9
		l14.1,38.8c1.1,3,3.9,5,7.1,5h318.7c3.2,0,6-2,7.1-5l14.1-38.8c12.8-1.7,22.6-12.7,22.6-25.9C406.3,192.8,394.6,181.1,380.1,181.1z
		 M258.4,153.6l5.2,15.6c0.1,0.4-0.4,1.3-1.5,1.6c-1.1,0.3-2-0.1-2.2-0.6l-5.8-18C255.7,152.7,257.1,153.2,258.4,153.6z
		 M201.3,144.4c0.5,0,1,0,1.6,0c0.7,0,1.5,0,2.2,0v25.5c0,0.4-0.8,1.1-1.9,1.1s-1.9-0.7-1.9-1.1V144.4z M142.7,169.3l5.3-15.9
		c1.4-0.5,2.7-0.9,4.1-1.3l-5.8,18.3c-0.1,0.2-0.7,0.9-2.1,0.5C142.8,170.5,142.6,169.8,142.7,169.3z M102.2,179.1
		c7.3-7,16.7-13.1,27.4-18.3l-1.3,3.8c0,0.1,0,0.1-0.1,0.2c-1.3,4.2-0.7,8.8,1.5,12.7c2.2,3.7,5.7,6.5,9.9,7.8
		c1.7,0.5,3.5,0.8,5.2,0.8c2.5,0,5-0.5,7.3-1.6c4-1.9,7.1-5.4,8.4-9.5l8.7-27.1c5.6-1.1,11.3-2,16.9-2.5v24.6
		c0,8.9,7.6,16.2,16.9,16.2c9.3,0,16.9-7.2,16.9-16.2v-24.6c5.7,0.6,11.4,1.5,17,2.6l8.6,26.9c2.1,6.9,8.6,11.2,15.7,11.2
		c1.7,0,3.5-0.3,5.2-0.8c7.7-2.4,12.6-9.6,12-17.1c-0.1-1.1-0.3-2.3-0.6-3.4c0-0.1,0-0.1-0.1-0.2l-1.2-3.5
		c10.4,5.1,19.5,11.1,26.6,17.9c8.6,8.2,17.4,13.9,25.6,17.8c-2.2,0.7-4.5,1.3-7.1,1.8c-3.5,0.7-7.7,1.1-13.2,1.1
		c-11.9,0-17.5-1.9-23.9-4.1c-6.7-2.3-14.4-4.9-28.8-4.9c-14.4,0-22.1,2.6-28.8,4.9c-6.4,2.2-12,4.1-23.9,4.1
		c-11.9,0-17.5-1.9-23.9-4.1c-6.7-2.3-14.4-4.9-28.8-4.9c-14.4,0-22.1,2.6-28.8,4.9c-6.4,2.2-12,4.1-23.9,4.1
		c-9.8,0-15.4-1.3-20.6-3C85,192.8,93.7,187.2,102.2,179.1z M357.2,262H49.1l-10.4-28.5h328.9L357.2,262z M380.1,218.4h-354
		c-6.1,0-11.1-5-11.1-11.1c0-6.1,5-11.1,11.1-11.1s11.1,5,11.1,11.1c0,4.2,3.4,7.5,7.5,7.5s7.5-3.4,7.5-7.5c0-0.4,0-0.8,0-1.2
		c7.1,0.6,11.5,2.1,16.5,3.8c6.7,2.3,14.4,4.9,28.8,4.9s22.1-2.6,28.8-4.9c6.4-2.2,12-4.1,23.9-4.1c11.9,0,17.5,1.9,23.9,4.1
		c6.7,2.3,14.4,4.9,28.8,4.9c14.4,0,22.1-2.6,28.8-4.9c6.4-2.2,12-4.1,23.9-4.1c11.9,0,17.5,1.9,23.9,4.1c6.7,2.3,14.4,4.9,28.8,4.9
		c14.4,0,22.1-2.6,28.8-4.9c4.9-1.7,9.3-3.2,16.5-3.8c0,0.4,0,0.8,0,1.2c0,4.2,3.4,7.5,7.5,7.5s7.5-3.4,7.5-7.5
		c0-6.1,5-11.1,11.1-11.1s11.1,5,11.1,11.1C391.3,213.4,386.3,218.4,380.1,218.4z"/>
</g>
</svg>
