<?xml version="1.0" encoding="utf-8"?>
<!-- Generator: Adobe Illustrator 23.0.4, SVG Export Plug-In . SVG Version: 6.00 Build 0)  -->
<svg version="1.1" id="Capa_1" xmlns="http://www.w3.org/2000/svg" xmlns:xlink="http://www.w3.org/1999/xlink" x="0px" y="0px"
	 viewBox="0 0 290.5 231.3" style="enable-background:new 0 0 290.5 231.3;" xml:space="preserve">
<style type="text/css">
	.st0{fill:#F7B923;}
</style>
<g>
	<g>
		<path class="st0" d="M234.6,51.4c0.6,0.3,1.3,0.5,1.9,0.7C235.9,51.9,235.2,51.6,234.6,51.4z"/>
		<path class="st0" d="M237.6,52.5c0.9,0.3,1.8,0.6,2.6,0.9C239.4,53.1,238.5,52.8,237.6,52.5z"/>
		<path class="st0" d="M249.2,58.3c-0.2-0.4-0.3-0.7-0.6-1C248.8,57.6,249,57.9,249.2,58.3z"/>
		<path class="st0" d="M249.6,59.7c-0.1-0.4-0.2-0.7-0.3-1.1C249.4,59,249.5,59.3,249.6,59.7z"/>
	</g>
	<g>
		<path class="st0" d="M99.6,212.2c0.4,0-0.4,0,2.6,0v5h103v-4.7C205.2,212.6,127.4,212.2,99.6,212.2z"/>
		<path class="st0" d="M90,212.2C90,212.2,90,212.2,90,212.2C90,212.2,90,212.2,90,212.2z"/>
		<path class="st0" d="M98.9,212.2c-0.3,0-0.5,0-0.8,0C98.3,212.2,98.6,212.2,98.9,212.2z"/>
	</g>
	<path class="st0" d="M274.8,111.7c0.2-1.6,0.3-3.3,0.4-5C275.2,108.4,275,110,274.8,111.7z"/>
	<path class="st0" d="M274.2,116.6c0.2-1.3,0.3-2.7,0.5-4C274.6,113.9,274.4,115.2,274.2,116.6z"/>
	<path class="st0" d="M74.7,210.3v13.5c0,4.2,3.4,7.5,7.5,7.5h126.1c4.2,0,7.5-3.4,7.5-7.5v-13.5c42.6-10.6,74.7-56.4,74.7-111.1
		c0-4.2-3.4-7.5-7.5-7.5h-5.8c-1.6-3.9-4.2-7.3-6.4-10.2c-1.9-2.5-3.7-4.9-4.4-6.8c-0.7-1.9-0.8-4.9-1-8.1
		c-0.2-5.7-0.5-12.8-4.9-18.5c-4-5.2-10.1-7.2-15.5-9c-3.1-1-6.4-2.1-8.2-3.6c-1.6-1.2-3.2-4-4.9-6.7c-2.9-4.9-6.2-10.5-12.3-13.5
		c-5.6-2.8-11.7-2.3-17.2-1.8c-3.4,0.3-6.9,0.6-9.1-0.1c-2-0.6-4.5-2.7-7-4.8c-4.3-3.5-9.2-7.5-15.6-8.4c-6.1-0.9-11.7,1.4-16.7,3.5
		c-3.1,1.3-6.4,2.7-8.7,2.7c-2.3,0-5.6-1.3-8.7-2.7c-5-2.1-10.6-4.4-16.7-3.5c-6.5,0.9-11.3,4.9-15.6,8.4c-2.5,2-5.1,4.2-7,4.8
		c-2.2,0.7-5.7,0.4-9.1,0.1c-5.4-0.5-11.6-1-17.2,1.8c-6,3-9.4,8.6-12.3,13.5c-1.6,2.7-3.3,5.5-4.8,6.7c-1.8,1.5-5.1,2.5-8.2,3.6
		c-5.4,1.8-11.5,3.8-15.5,9c-4.4,5.7-4.7,12.8-4.9,18.5c-0.1,3.2-0.2,6.1-1,8.1c-0.7,2-2.5,4.3-4.4,6.8c-2.2,2.9-4.8,6.3-6.4,10.2
		H7.5c-4.2,0-7.5,3.4-7.5,7.5C0,153.9,32.1,199.7,74.7,210.3z M31.7,90.6c2.4-3.1,5.1-6.7,6.6-10.8c1.5-4.2,1.7-8.5,1.9-12.7
		c0.2-3.9,0.3-8,1.8-9.9c1.2-1.5,5-2.8,8.3-3.9c4.2-1.4,8.9-2.9,12.8-6c3.8-3,6.3-7.1,8.5-10.8c2-3.3,4-6.7,6.1-7.8
		c1.8-0.9,5.5-0.6,9.1-0.3c4.6,0.4,9.8,0.8,14.8-0.7c4.8-1.5,8.7-4.7,12.2-7.5c2.9-2.4,5.9-4.9,8.2-5.2c2-0.3,5.5,1.1,8.8,2.5
		c4.3,1.8,9.2,3.8,14.5,3.8c5.3,0,10.2-2,14.5-3.8c3.3-1.4,6.8-2.8,8.8-2.5c2.3,0.3,5.3,2.8,8.2,5.2c3.5,2.8,7.4,6,12.2,7.5
		c5,1.5,10.2,1.1,14.8,0.7c3.6-0.3,7.3-0.6,9.1,0.3c2.1,1.1,4.2,4.5,6.1,7.8c2.2,3.7,4.7,7.9,8.5,10.8c3.9,3.1,8.7,4.6,12.8,6
		c3.3,1.1,7.1,2.3,8.3,3.9c1.4,1.9,1.6,5.9,1.8,9.9c0.2,4.2,0.3,8.5,1.9,12.7c1.5,4.1,4.2,7.6,6.6,10.8c0.3,0.4,0.6,0.7,0.8,1.1
		H30.9C31.1,91.3,31.4,91,31.7,90.6z M275.3,106.7c-3.1,50.7-37,90.8-78.3,90.8H93.6c-41.3,0-75.3-40.1-78.3-90.8
		C15.3,106.7,275.3,106.7,275.3,106.7z"/>
</g>
</svg>
