<?xml version="1.0" encoding="utf-8"?>
<!-- Generator: Adobe Illustrator 23.0.4, SVG Export Plug-In . SVG Version: 6.00 Build 0)  -->
<svg version="1.1" id="Capa_1" xmlns="http://www.w3.org/2000/svg" xmlns:xlink="http://www.w3.org/1999/xlink" x="0px" y="0px"
	 viewBox="0 0 372.2 372.2" style="enable-background:new 0 0 372.2 372.2;" xml:space="preserve">
<style type="text/css">
	.st0{fill:#F7B923;}
</style>
<g>
	<g>
		<path class="st0" d="M57.1,179.7C57.1,179.6,57.1,179.6,57.1,179.7C57.1,179.6,57.1,179.6,57.1,179.7z"/>
		<path class="st0" d="M56.2,180.2c0,0,0.1-0.1,0.1-0.1C56.2,180.2,56.2,180.2,56.2,180.2z"/>
		<path class="st0" d="M55.4,180.7c0.1,0,0.1-0.1,0.2-0.1C55.5,180.6,55.4,180.7,55.4,180.7z"/>
	</g>
	<g>
		<path class="st0" d="M356.6,74.4c0.2,0.5,0.4,0.9,0.5,1.4C356.9,75.4,356.8,74.9,356.6,74.4z"/>
		<path class="st0" d="M357.1,76.1c0.1,0.4,0.1,0.8,0.1,1.2C357.2,76.9,357.1,76.5,357.1,76.1z"/>
		<path class="st0" d="M305.9,174.3c0,0-0.1-0.1-0.1-0.1C305.8,174.3,305.9,174.3,305.9,174.3z"/>
		<path class="st0" d="M305.5,174.1c-0.2-0.1-0.3-0.2-0.4-0.2C305.1,173.9,305.3,174,305.5,174.1z"/>
	</g>
	<g>
		<path class="st0" d="M268.5,145.1c0.6,0.3,1.2,0.7,1.7,1.1C269.7,145.8,269.2,145.4,268.5,145.1z"/>
		<path class="st0" d="M145,153.6C145,153.6,145,153.7,145,153.6C145,153.7,145,153.6,145,153.6z"/>
		<path class="st0" d="M272.2,148.3c0.3,0.4,0.6,0.9,0.9,1.4C272.8,149.2,272.5,148.7,272.2,148.3z"/>
		<path class="st0" d="M271.8,147.7c-0.3-0.4-0.7-0.7-1-1.1C271.1,147,271.4,147.3,271.8,147.7z"/>
		<path class="st0" d="M273.4,150.3c0.4,0.7,0.7,1.5,1.1,2.4C274.2,151.8,273.8,151,273.4,150.3z"/>
		<path class="st0" d="M232.6,155.8c-0.4-0.1-0.7-0.2-1.1-0.2C231.8,155.6,232.2,155.7,232.6,155.8z"/>
		<path class="st0" d="M144.3,151.6c0,0.1,0,0.1,0.1,0.2C144.4,151.7,144.4,151.7,144.3,151.6z"/>
		<path class="st0" d="M235.6,156.6c-0.4-0.1-0.8-0.2-1.2-0.4C234.9,156.4,235.3,156.5,235.6,156.6z"/>
		<path class="st0" d="M228.4,155.2c0.3,0,0.7,0.1,1,0.1C229,155.3,228.7,155.2,228.4,155.2z"/>
	</g>
	<g>
		<path class="st0" d="M240,178.1c0.2,0.4,0.4,0.8,0.6,1.3C240.4,179,240.2,178.6,240,178.1z"/>
		<path class="st0" d="M238.1,175.6c-0.2-0.3-0.5-0.6-0.7-0.8C237.6,175,237.8,175.3,238.1,175.6z"/>
		<path class="st0" d="M238.8,176.4c0.3,0.4,0.5,0.8,0.8,1.1C239.3,177.1,239.1,176.7,238.8,176.4z"/>
	</g>
	<g>
		<path class="st0" d="M169.4,137.7c0.4,0.1,0.8,0.3,1.2,0.5C170.2,138,169.8,137.8,169.4,137.7z"/>
		<path class="st0" d="M171.1,138.4c0.4,0.2,0.7,0.4,1.1,0.7C171.8,138.9,171.5,138.7,171.1,138.4z"/>
		<path class="st0" d="M159.5,149.4c-0.1-0.2-0.2-0.4-0.3-0.6C159.3,149,159.4,149.2,159.5,149.4z"/>
		<path class="st0" d="M158.9,147.9c0-0.2-0.1-0.3-0.1-0.5C158.8,147.5,158.9,147.7,158.9,147.9z"/>
		<path class="st0" d="M167,137.3c0.6,0,1.3,0.1,1.9,0.2C168.3,137.4,167.6,137.3,167,137.3z"/>
		<path class="st0" d="M173.5,140.5c-0.3-0.4-0.6-0.7-0.9-1C172.9,139.8,173.2,140.1,173.5,140.5z"/>
		<path class="st0" d="M162.7,152.9c-0.2-0.1-0.5-0.3-0.7-0.5C162.2,152.6,162.4,152.7,162.7,152.9z"/>
		<path class="st0" d="M160.4,150.8c-0.1-0.2-0.3-0.4-0.4-0.6C160.1,150.4,160.2,150.6,160.4,150.8z"/>
		<path class="st0" d="M165.6,154c-0.3-0.1-0.6-0.1-0.9-0.2C165,153.8,165.3,153.9,165.6,154z"/>
		<path class="st0" d="M164.1,153.5c-0.3-0.1-0.5-0.2-0.8-0.4C163.5,153.3,163.8,153.4,164.1,153.5z"/>
		<path class="st0" d="M160.9,151.4c0.2,0.2,0.4,0.4,0.6,0.5C161.2,151.8,161,151.6,160.9,151.4z"/>
	</g>
	<g>
		<path class="st0" d="M59.4,257.5c-0.6-1.3-1.2-2.6-1.8-4C58.2,254.8,58.7,256.2,59.4,257.5z"/>
		<path class="st0" d="M62.3,263c-0.7-1.1-1.3-2.3-1.9-3.5C61,260.7,61.6,261.8,62.3,263z"/>
		<path class="st0" d="M70.3,274.6c2.5,3.1,5.3,5.9,8.2,8.5C75.5,280.5,72.8,277.7,70.3,274.6z"/>
		<path class="st0" d="M56.8,251.6c-0.8-2-1.6-4-2.3-6.1C55.2,247.6,56,249.7,56.8,251.6z"/>
		<path class="st0" d="M65.6,268.3c-0.7-1.1-1.5-2.2-2.2-3.4C64.1,266,64.8,267.2,65.6,268.3z"/>
		<path class="st0" d="M324.1,212.6c0.1-1.2,0.1-2.4,0.2-3.4C324.3,210.2,324.2,211.4,324.1,212.6z"/>
		<path class="st0" d="M69.4,273.4c-0.9-1.1-1.8-2.3-2.7-3.5C67.6,271.1,68.5,272.3,69.4,273.4z"/>
		<path class="st0" d="M323.8,216.7c0.1-1.4,0.2-2.7,0.3-3.9C324,214,323.9,215.3,323.8,216.7z"/>
		<path class="st0" d="M83,286.8c-1.3-1-2.6-2-3.8-3.1C80.4,284.8,81.7,285.8,83,286.8z"/>
		<path class="st0" d="M324.3,209c0-1.1,0.1-2.1,0.1-3C324.4,206.9,324.4,207.9,324.3,209z"/>
	</g>
	<path class="st0" d="M370.3,68.4c-2.4-5.4-6.8-9.6-12.3-11.7c-11.4-4.4-24.3,1.3-28.7,12.7l-36,92.9c-0.7-1.9-1.3-3.9-1.9-6
		c-2.6-8.8-5.8-19.8-16.7-24.8c-8.4-3.8-18.6-1.6-28.5,0.6c-7,1.6-14.3,3.2-19.5,2.2c-4.1-0.8-8.9-4.4-14-8.3
		c-7.6-5.7-16.1-12.2-26.7-12.2c-8.6,0-15.9,4.3-22,8.8c-7.4,0.9-13.7,5.3-17.3,11.4c-0.5,0.2-0.9,0.3-1.4,0.4
		c-5.2,1-12.5-0.6-19.5-2.2c-9.9-2.2-20.1-4.4-28.5-0.6c-10.9,5-14.2,15.9-16.7,24.8c-0.6,2.1-1.2,4.1-1.9,6l-36-92.9
		c-4.4-11.4-17.3-17.1-28.7-12.7C8.7,58.8,4.3,63,1.9,68.4c-2.4,5.4-2.5,11.4-0.4,17L42.4,191h-2c-3.9,0-7.2,3-7.5,6.9
		c-0.1,1-1.8,25.2,7.1,52c12.1,36.2,37.9,59.3,74.7,67.1c0.5,0.1,1,0.2,1.5,0.2h139.6c0.5,0,1-0.1,1.5-0.2
		c36.8-7.7,62.6-30.9,74.7-67.1c9-26.7,7.2-51,7.1-52c-0.3-3.9-3.6-6.9-7.5-6.9h-2l40.9-105.6C372.9,79.8,372.7,73.8,370.3,68.4z
		 M356.7,79.9l-39.2,101.2c-2.7-1.8-11.2-6.5-12.5-7.3l38.4-99.1c1.4-3.7,5.6-5.5,9.2-4.1c1.8,0.7,3.2,2,3.9,3.8
		C357.4,76.2,357.4,78.1,356.7,79.9z M317.9,245.1c-10.4,31-31.5,50.2-62.8,57h-138c-31.1-6.8-52.2-25.8-62.7-56.5
		c-5.4-15.9-6.5-31.1-6.6-39.5h276.6C324.3,214.4,323.2,229.3,317.9,245.1z M15.7,74.4c0.8-1.7,2.2-3.1,3.9-3.8
		c3.7-1.4,7.8,0.4,9.2,4.1l38.4,99.1c-1.3,0.7-9.8,5.5-12.5,7.3L15.5,79.9C14.8,78.1,14.9,76.2,15.7,74.4z M87,177.8
		c4.4-4.8,6.3-11.1,8.1-17.3c2.4-8.2,4.2-13.3,8.6-15.3c3.8-1.8,11.9,0,19,1.6c7,1.6,14.2,3.1,21.2,2.8
		c1.8,11.1,11.5,19.6,23.1,19.6c12.9,0,23.4-10.5,23.4-23.4c0-6.5-2.7-12.4-7-16.6c0.9-0.2,1.8-0.3,2.6-0.3c5.5,0,11.4,4.5,17.6,9.2
		c6.2,4.7,12.7,9.6,20.3,11.1c8.2,1.6,17-0.4,25.6-2.3c7.1-1.6,15.2-3.3,19-1.6c4.4,2,6.2,7.1,8.6,15.3c1.8,6.2,3.7,12.6,8.1,17.3
		c4.2,4.6,18.4,12.5,19.5,13.2h-48c1.8-11.1-2.6-22.6-12-29.7c-13.7-10.3-33.1-7.5-43.4,6.2c-1.2,1.6-1.7,3.6-1.4,5.6
		c0.3,2,1.3,3.8,2.9,5l17.3,13h-56.2c-2.3-14.2-14.6-24.8-29.1-24.8c-1.2,0-2.3,0.1-3.5,0.2c-7.8,0.9-14.8,4.8-19.7,11
		c-3.2,4-5.2,8.6-5.9,13.5H67.5c1.1-0.6,8.7-4.9,11.4-6.6C82.4,182.1,85,180,87,177.8z M167,137.3c4.6,0,8.4,3.8,8.4,8.4
		c0,4.6-3.8,8.4-8.4,8.4c-4.6,0-8.4-3.8-8.4-8.4S162.4,137.3,167,137.3z M241.9,188.5l-22.5-16.9c5.2-2.4,11.5-2,16.3,1.7
		C240.5,176.9,242.8,182.8,241.9,188.5z M121.7,189.6c0.5-1,1.1-2,1.8-2.9c2.4-3,5.8-4.9,9.6-5.4c0.6-0.1,1.2-0.1,1.7-0.1
		c4.6,0,8.7,2.1,11.3,5.5L121.7,189.6z"/>
</g>
</svg>
