<?xml version="1.0" encoding="utf-8"?>
<!-- Generator: Adobe Illustrator 23.0.4, SVG Export Plug-In . SVG Version: 6.00 Build 0)  -->
<svg version="1.1" id="Capa_1" xmlns="http://www.w3.org/2000/svg" xmlns:xlink="http://www.w3.org/1999/xlink" x="0px" y="0px"
	 viewBox="0 0 374.6 374.6" style="enable-background:new 0 0 374.6 374.6;" xml:space="preserve">
<style type="text/css">
	.st0{fill:#F7B923;}
	.st1{fill:#EF8829;}
</style>
<g>
	<path class="st0" d="M359.6,231.7c1.1-2.4,1.7-5.1,1.7-7.9c0-9.8-7.1-17.9-16.4-19.6c0.6-2.1,1-4.4,1-6.8c0-2.4-0.4-4.6-1-6.8
		c16.7-2.2,29.7-16.6,29.7-34c0-18.4-20.1-34.2-58-45.7c-34.6-10.5-80.6-16.3-129.3-16.3c-48.7,0-94.7,5.8-129.3,16.3
		c-37.9,11.5-58,27.3-58,45.7c0,17.3,13,31.7,29.7,34c-0.6,2.1-1,4.4-1,6.8c0,2.4,0.3,4.6,1,6.8c-9.3,1.7-16.4,9.8-16.4,19.6
		c0,2.8,0.6,5.5,1.7,7.9C6.9,236,1.4,244.5,1.4,254.3c0,14.2,11.5,25.7,25.7,25.7h320.4c14.2,0,25.7-11.5,25.7-25.7
		C373.1,244.5,367.7,236,359.6,231.7z M347.5,264.9H27.1c-5.9,0-10.6-4.8-10.6-10.6c0-5.9,4.8-10.6,10.6-10.6h320.4
		c5.9,0,10.6,4.8,10.6,10.6C358.1,260.1,353.3,264.9,347.5,264.9z M118.2,113.9L93.1,139c-1.6,1.6-4.2,1.6-5.7,0
		c-1.6-1.6-1.6-4.2,0-5.7l17.5-17.5C109.2,115.1,113.7,114.4,118.2,113.9z M78.4,121l-1.7,1.7c-7.4,7.4-7.4,19.6,0,27
		c3.7,3.7,8.6,5.6,13.5,5.6c4.9,0,9.8-1.9,13.5-5.6l38.1-38.2c10.1-0.8,20.5-1.3,31.1-1.6l-12.8,12.8c-7.4,7.4-7.4,19.6,0,27
		c3.7,3.7,8.6,5.6,13.5,5.6c4.9,0,9.8-1.9,13.5-5.6l38.5-38.7c9.3,0.6,18.3,1.5,27.1,2.5l-9.3,9.3c-7.4,7.4-7.4,19.6,0,27
		c3.7,3.7,8.6,5.6,13.5,5.6c4.9,0,9.8-1.9,13.5-5.6l27.8-28.1c4.8,1.2,9.4,2.4,13.9,3.8c34.9,10.6,47.3,23.1,47.3,31.4
		c0,10.6-8.6,19.2-19.2,19.2h-306c-10.6,0-19.2-8.6-19.2-19.2c0-8.2,12.4-20.8,47.3-31.4C67.5,123.7,72.8,122.3,78.4,121z
		 M205.4,109.9L176.5,139c-1.6,1.6-4.2,1.6-5.7,0c-1.6-1.6-1.6-4.2,0-5.7l23.6-23.6C198,109.7,201.7,109.8,205.4,109.9z
		 M280.9,117.7L259.9,139c-1.6,1.6-4.2,1.6-5.7,0c-1.6-1.6-1.6-4.2,0-5.7l17.3-17.2C274.6,116.6,277.8,117.1,280.9,117.7z
		 M47.7,190.9h77.8c1.9,0,3.9,2.8,3.9,6.4c0,3.7-2.1,6.4-3.9,6.4H47.7c-1.9,0-3.9-2.8-3.9-6.4S45.8,190.9,47.7,190.9z M230.1,197.4
		c0,3.7-2.1,6.4-3.9,6.4h-77.8c-1.9,0-3.9-2.8-3.9-6.4c0-3.7,2.1-6.4,3.9-6.4h77.8C228,190.9,230.1,193.7,230.1,197.4z M326.9,203.8
		h-77.8c-1.9,0-3.9-2.8-3.9-6.4c0-3.7,2.1-6.4,3.9-6.4h77.8c1.9,0,3.9,2.8,3.9,6.4C330.8,201.1,328.8,203.8,326.9,203.8z
		 M33.2,218.8h308.1c2.7,0,4.9,2.2,4.9,4.9s-2.2,4.9-4.9,4.9H33.2c-2.7,0-4.9-2.2-4.9-4.9S30.5,218.8,33.2,218.8z"/>
	<g>
		<path class="st1" d="M144.8,199.9c0.7,2.3,2.2,3.9,3.6,3.9h0C147,203.8,145.5,202.3,144.8,199.9z"/>
		<path class="st1" d="M148.4,190.9L148.4,190.9c-1.4,0-2.9,1.6-3.6,3.9C145.5,192.5,147,190.9,148.4,190.9z"/>
	</g>
</g>
</svg>
