<?xml version="1.0" encoding="utf-8"?>
<!-- Generator: Adobe Illustrator 23.0.4, SVG Export Plug-In . SVG Version: 6.00 Build 0)  -->
<svg version="1.1" id="Capa_1" xmlns="http://www.w3.org/2000/svg" xmlns:xlink="http://www.w3.org/1999/xlink" x="0px" y="0px"
	 viewBox="0 0 328.2 328.2" style="enable-background:new 0 0 328.2 328.2;" xml:space="preserve">
<style type="text/css">
	.st0{fill:#FFFFFF;}
	.st1{fill:#F7B923;}
</style>
<g>
	<g>
		<g>
			<path class="st0" d="M135.6,142.3c0.5-2.3,1.2-4.9,2-7.7c-3.3-2.2-16.8-9.9-27.7-26.2C116.8,125.1,127.6,135.9,135.6,142.3z"/>
		</g>
	</g>
	<path class="st1" d="M268.3,20.6C251.2,0.7,220.2,0.1,216.7,0.1c0,0-70.6-3.6-117.7,31.6c-26.5,19.8-43.1,48.4-48.6,88.9
		c-5.7,41.8,9.5,80.2,44,111.1c25.6,22.9,52.6,33.5,53.7,33.9c10.1,4.5,18.8,2.5,20.9,2.1c0,0,24.2,50.8,24.3,51
		c6.9,13.7,21.6,9.5,26.3,6.7c8.3-4.8,8.9-12.2,9-12.5c5-0.5,10-2.9,13.6-7.1c3.6-4.3,5.2-9.7,4.8-14.9c4.8-1.8,8.9-5.5,11-10.7
		c4-9.8-0.7-21-10.5-25c-0.3-0.1-54.9-15.4-54.9-15.4c0.5-13.6-10.1-25.9-20.4-38c-11.6-13.6-23.5-27.6-23.5-44.5
		c0-25.7,15.5-38.8,46-38.8c11.5,0,29.6,3.6,33.7,3.6c0,0,0,0,0,0c19.3,0,34.1-11,42.9-31.7c5.7-13.5,6.9-26.8,7.1-29.2
		C280.7,44.8,277.3,31.1,268.3,20.6z M228.2,107.1c-3,0-6.2-0.4-9.5-1.1c-0.4-0.1-8.8-2-20.2-2.4c-2.9-4.3-8.3-13.4-11.7-25.5
		c-5.9-21.3-3.2-42.3,8-62.3c6.6-0.4,21.9-0.6,21.9-0.6c0.3,0,26.5,0.9,40.2,15.3c5.2,5.5,7.9,17.6,6.4,28.9
		C263.3,59.5,260,107.1,228.2,107.1L228.2,107.1z M187.7,254l54.2,15.2c1.9,1,2.8,3.3,2,5.3c-0.9,2.1-3.3,3.1-5.4,2.3
		c-3.8-1.6-8.2,0.3-9.8,4.1c-1.2,3-0.4,6.4,1.9,8.4c0,0,0.1,0.1,0.1,0.1c1.6,1.3,1.4,4.6-0.2,6.5c-2.9,3.7-6,1.2-6.1,1.2
		c-2.4-2-5.8-2.4-8.6-0.7c-3.6,2.1-4.8,6.7-2.6,10.3c0.6,1,0.7,2.1,0.4,3.1c-0.3,1.1-0.9,2-1.9,2.5c-0.9,0.6-2.1,0.7-3.1,0.4
		c-1-0.3-1.8-0.8-2.4-1.7l-24.1-50.6C184.7,258.2,186.5,255.9,187.7,254z M158.9,209.4c0.6,0.7,24.1,23.6,17.1,35
		c-0.1,0.1-0.1,0.1-0.1,0.2c-0.2,0.4-4.4,8.7-13.9,8.7c-2.6,0-18.7-0.5-42.9-21.2C139.3,229,152,217.7,158.9,209.4z M101.2,217.5
		c-19.3-18.2-31.1-38.5-35.3-60.8c28.6,22.4,66.6,16.4,70,16.1c2.8,9.1,7.7,17.1,13.3,24.6C143.7,204.9,128.8,220.5,101.2,217.5z
		 M137.6,134.5c-4.4,15.3-4,23.2-4,23.4c-14,1.3-47.1,1.5-69.3-22.6c0.1-4.2-1-44,30.9-82.2C93.3,109.1,131.7,130.6,137.6,134.5z
		 M145.4,121.7c-5-3.4-45.3-32.9-33.2-82.9c16.9-11.1,38.4-18.2,65-21.5c-24,40.7,1.1,81.5,4.1,87
		C165.8,106.4,153.6,112.3,145.4,121.7z"/>
</g>
</svg>
