<?xml version="1.0" encoding="utf-8"?>
<!-- Generator: Adobe Illustrator 23.0.4, SVG Export Plug-In . SVG Version: 6.00 Build 0)  -->
<svg version="1.1" id="Capa_1" xmlns="http://www.w3.org/2000/svg" xmlns:xlink="http://www.w3.org/1999/xlink" x="0px" y="0px"
	 viewBox="0 0 367 367" style="enable-background:new 0 0 367 367;" xml:space="preserve">
<style type="text/css">
	.st0{fill:#F7B923;}
</style>
<g>
	<g>
		<path class="st0" d="M68,260.1c-0.3-0.8-0.5-1.6-0.7-2.4C67.5,258.5,67.8,259.3,68,260.1z"/>
		<path class="st0" d="M62.4,233.7c-0.1-0.8-0.2-1.6-0.3-2.4C62.2,232.1,62.3,232.9,62.4,233.7z"/>
		<path class="st0" d="M74.5,276.4c-0.3-0.7-0.7-1.4-1-2.1C73.8,275,74.2,275.7,74.5,276.4z"/>
		<path class="st0" d="M65.6,251.6c-0.1-0.5-0.3-1.1-0.4-1.6C65.3,250.6,65.5,251.1,65.6,251.6z"/>
		<path class="st0" d="M63.6,242.2c-0.1-0.7-0.2-1.4-0.3-2.1C63.4,240.7,63.5,241.5,63.6,242.2z"/>
		<path class="st0" d="M90.9,300.8c0.6,0.6,1.1,1.3,1.7,1.9C92.1,302.1,91.5,301.4,90.9,300.8z"/>
		<path class="st0" d="M70.6,267.5c-0.2-0.5-0.4-1.1-0.6-1.6C70.2,266.4,70.4,267,70.6,267.5z"/>
		<path class="st0" d="M99.2,309c-0.6-0.5-1.2-1-1.8-1.6C98,307.9,98.6,308.4,99.2,309z"/>
		<path class="st0" d="M304.5,234.5c0.1-1.1,0.3-2.1,0.4-3.2C304.7,232.4,304.6,233.5,304.5,234.5z"/>
		<path class="st0" d="M82.7,290.4c-0.4-0.5-0.7-1.1-1.1-1.6C82,289.3,82.3,289.9,82.7,290.4z"/>
		<path class="st0" d="M78.2,283.3c-0.4-0.7-0.8-1.5-1.3-2.3C77.4,281.8,77.8,282.5,78.2,283.3z"/>
		<path class="st0" d="M87.8,297.2c-0.6-0.7-1.2-1.4-1.7-2.1C86.7,295.8,87.3,296.5,87.8,297.2z"/>
	</g>
	<path class="st0" d="M144.4,145.5c0,13.8,6.9,21,12.4,26.8c4.8,5,8.2,8.6,8.2,16.4c0,4.2,3.4,7.5,7.5,7.5c4.2,0,7.5-3.4,7.5-7.5
		c0-13.8-6.9-21-12.4-26.8c-4.8-5-8.2-8.6-8.2-16.4c0-7.8,3.4-11.4,8.2-16.4c5.5-5.8,12.4-13,12.4-26.8s-6.9-21-12.4-26.8
		c-4.8-5-8.2-8.6-8.2-16.4c0-7.8,3.4-11.4,8.2-16.4c5.5-5.8,12.4-13,12.4-26.7c0-4.2-3.4-7.5-7.5-7.5c-4.2,0-7.5,3.4-7.5,7.5
		c0,7.8-3.4,11.4-8.2,16.4c-5.5,5.8-12.4,13-12.4,26.8c0,13.8,6.9,21,12.4,26.8c4.8,5,8.2,8.6,8.2,16.4c0,7.8-3.4,11.4-8.2,16.4
		C151.3,124.5,144.4,131.7,144.4,145.5z"/>
	<path class="st0" d="M182.9,136.9c0,13.8,6.9,21,12.4,26.8c4.8,5,8.2,8.6,8.2,16.4c0,4.2,3.4,7.5,7.5,7.5c4.2,0,7.5-3.4,7.5-7.5
		c0-13.8-6.9-21-12.4-26.8c-4.8-5-8.2-8.6-8.2-16.4c0-7.8,3.4-11.4,8.2-16.4c5.5-5.8,12.4-13,12.4-26.8s-6.9-21-12.4-26.8
		c-4.8-5-8.2-8.6-8.2-16.4c0-7.8,3.4-11.4,8.2-16.4c5.5-5.8,12.4-13,12.4-26.7c0-4.2-3.4-7.5-7.5-7.5c-4.2,0-7.5,3.4-7.5,7.5
		c0,7.8-3.4,11.4-8.2,16.4c-5.5,5.8-12.4,13-12.4,26.8c0,13.8,6.9,21,12.4,26.8c4.8,5,8.2,8.6,8.2,16.4s-3.4,11.4-8.2,16.4
		C189.8,115.9,182.9,123.1,182.9,136.9z"/>
	<path class="st0" d="M129.4,297.1c-17.6-10.9-29.9-28.6-35.3-51.1c-1-4-5-6.5-9.1-5.5c-4,1-6.5,5-5.5,9.1
		c6.4,26.4,20.9,47.3,42,60.3c1.2,0.8,2.6,1.1,3.9,1.1c2.5,0,5-1.3,6.4-3.6C134,303.9,132.9,299.3,129.4,297.1z"/>
	<path class="st0" d="M313.2,207.7H53.8c-4.2,0-7.5,3.4-7.5,7.5c0,29.6,7.2,56.9,20.9,79c13.6,21.9,33.4,38.2,57.5,47.4v17.9
		c0,4.2,3.4,7.5,7.5,7.5h102.6c4.2,0,7.5-3.4,7.5-7.5v-17.9c24.1-9.2,43.9-25.5,57.5-47.4c13.7-22,20.9-49.4,20.9-79
		C320.7,211.1,317.3,207.7,313.2,207.7z M227.3,343.6v8.3h-87.6v-8.3 M132.9,328.6c-42.8-15-69.1-54.2-71.4-105.9h244
		c-2.3,51.7-28.6,90.9-71.4,105.9H132.9z"/>
</g>
</svg>
