<?xml version="1.0" encoding="iso-8859-1"?>
<!-- Generator: Adobe Illustrator 18.0.0, SVG Export Plug-In . SVG Version: 6.00 Build 0)  -->
<!DOCTYPE svg PUBLIC "-//W3C//DTD SVG 1.1//EN" "http://www.w3.org/Graphics/SVG/1.1/DTD/svg11.dtd">
<svg version="1.1" id="Capa_1" xmlns="http://www.w3.org/2000/svg" xmlns:xlink="http://www.w3.org/1999/xlink" x="0px" y="0px"
	 viewBox="0 0 361.048 361.048" style="enable-background:new 0 0 361.048 361.048;" xml:space="preserve">
<g>
	<g>
		<g>
			<path style="fill:#FFFFFF;" d="M296.546,150.259c7.307,1.669,14.321,3.278,19.333,6.007c-0.599-1.211-1.3-2.359-2.123-3.433
				c-4.261-5.558-14.096-7.805-24.51-10.183c-8.801-2.012-17.9-4.091-25.862-8.51c-3.532-1.96-6.764-4.556-9.821-7.449
				c5.208,5.776,10.665,11.476,17.121,15.058"/>
			<g>
				<path style="fill:#84BD93;" d="M230.31,103.241c0.399,0.285,0.793,0.597,1.187,0.903
					C231.103,103.838,230.709,103.526,230.31,103.241z"/>
				<path style="fill:#84BD93;" d="M227.525,101.45c0.386,0.219,0.763,0.475,1.144,0.715
					C228.288,101.925,227.911,101.668,227.525,101.45z"/>
				<path style="fill:#84BD93;" d="M224.649,100.047c0.335,0.135,0.658,0.317,0.988,0.469
					C225.307,100.363,224.984,100.182,224.649,100.047z"/>
				<path style="fill:#84BD93;" d="M139.52,104.318c9.148,3.412,18.607,6.942,28.436,6.942h0
					C158.128,111.26,148.668,107.73,139.52,104.318c-8.255-3.082-16.109-6.015-22.581-5.616
					C123.41,98.304,131.264,101.237,139.52,104.318z"/>
				<path style="fill:#84BD93;" d="M240.99,113.233c0.433,0.473,0.866,0.944,1.3,1.425
					C241.856,114.178,241.422,113.706,240.99,113.233z"/>
				<path style="fill:#84BD93;" d="M238.336,110.407c0.412,0.427,0.823,0.856,1.234,1.295
					C239.16,111.264,238.748,110.834,238.336,110.407z"/>
				<path style="fill:#84BD93;" d="M233.027,105.366c0.403,0.341,0.802,0.697,1.201,1.056
					C233.829,106.063,233.429,105.707,233.027,105.366z"/>
				<path style="fill:#84BD93;" d="M236.907,108.955c-0.403-0.401-0.807-0.796-1.212-1.183
					C236.1,108.159,236.504,108.554,236.907,108.955z"/>
				<path style="fill:#84BD93;" d="M21.609,235.581c0.407,0.267,0.86,0.505,1.307,0.747
					C22.469,236.086,22.017,235.848,21.609,235.581z"/>
				<path style="fill:#84BD93;" d="M24.578,210.44c-0.145,1.089-0.258,2.183-0.352,3.28C24.32,212.623,24.433,211.529,24.578,210.44
					z"/>
				<path style="fill:#84BD93;" d="M18.332,232.691c0.211,0.258,0.468,0.486,0.702,0.73C18.8,233.178,18.544,232.949,18.332,232.691
					z"/>
				<path style="fill:#84BD93;" d="M25.332,205.956c-0.173,0.871-0.331,1.745-0.472,2.621
					C25.001,207.701,25.158,206.827,25.332,205.956z"/>
				<path style="fill:#84BD93;" d="M81.367,140.469c-0.971,0.503-1.945,1-2.899,1.521C79.422,141.47,80.397,140.971,81.367,140.469z
					"/>
				<path style="fill:#84BD93;" d="M317.582,206.023c-0.288-0.809-0.434-1.658-0.434-2.516c0-5.002,0.468-10.277,0.919-15.381
					c1.158-13.079,2.354-26.602-4.31-35.293c-4.261-5.558-14.097-7.805-24.51-10.183c-8.801-2.012-17.9-4.091-25.861-8.51
					c-7.247-4.021-13.235-10.71-19.025-17.18c-0.609-0.68-1.212-1.349-1.816-2.02c-4.26-3.997-8.659-7.098-13.583-8.246
					c-6.924-1.617-15.833,1.713-25.268,5.233c-9.147,3.412-18.605,6.942-28.436,6.942c-9.829,0-19.288-3.53-28.436-6.942
					c-9.435-3.522-18.346-6.85-25.266-5.233c-8.467,1.973-15.382,9.698-22.704,17.876c-4.696,5.247-9.524,10.639-15.046,14.635
					c-0.043,0.021-0.084,0.045-0.127,0.066c24.397-12.106,53.712-18.651,84.456-18.651c37.981,0,73.171,11.084,100.21,29.211
					c27.963,18.746,40.686,43.076,40.686,70.138l2.107,20.263c2.594-1.257,6.493-5.268,7.063-6.076
					C323.627,226.467,319.307,210.877,317.582,206.023z"/>
				<path style="fill:#84BD93;" d="M19.824,234.229c0.331,0.294,0.711,0.556,1.079,0.827
					C20.535,234.785,20.156,234.522,19.824,234.229z"/>
				<path style="fill:#84BD93;" d="M74.034,144.501c-6.437,2.633-13.337,4.22-20.067,5.757c-10.414,2.38-20.25,4.628-24.51,10.185
					c-6.666,8.691-5.468,22.214-4.31,35.291c0.234,2.637,0.467,5.319,0.644,7.986c-0.032,0.139-0.054,0.28-0.086,0.419
					c4.757-21.05,19.103-40.329,41.597-55.409c2.74-1.837,5.594-3.568,8.507-5.236C75.22,143.834,74.617,144.157,74.034,144.501z"/>
			</g>
		</g>
		<g>
			<path style="fill:#FDD44B;" d="M332.561,203.513c-0.133-0.449-0.258-0.852-0.368-1.198
				C332.303,202.66,332.428,203.067,332.561,203.513z"/>
			<path style="fill:#FDD44B;" d="M333.042,204.188c-0.023,0.262-0.045,0.516-0.068,0.777c-0.066-0.243-0.127-0.445-0.191-0.67
				c2.167,7.611,5.979,25.922-2.923,38.532c-3.214,4.551-9.259,10.008-20.263,11.369c-1.217,3.001-2.83,6.509-4.745,8.509h18.817
				c12.321,0,24.193-10.344,24.193-22.665v-5.536c0-12.566-5.204-24.758-13.419-35.937
				C334.296,200.463,333.206,202.34,333.042,204.188z"/>
		</g>
		<g>
			<path style="fill:#FDD44B;" d="M45.205,255.48c0.128,0.133,0.246,0.274,0.377,0.404C45.452,255.754,45.333,255.613,45.205,255.48
				z"/>
			<path style="fill:#FDD44B;" d="M39.159,242.776c-0.026-0.216-0.059-0.429-0.079-0.646
				C39.1,242.348,39.133,242.561,39.159,242.776z"/>
			<path style="fill:#FDD44B;" d="M264.565,164.013c0.418,0.306,0.82,0.619,1.23,0.928
				C265.385,164.632,264.983,164.319,264.565,164.013z"/>
			<path style="fill:#FDD44B;" d="M39.521,244.896c-0.052-0.235-0.101-0.471-0.146-0.708
				C39.42,244.425,39.469,244.661,39.521,244.896z"/>
			<path style="fill:#FDD44B;" d="M282.217,180.492c0.381,0.465,0.744,0.936,1.112,1.406
				C282.961,181.428,282.598,180.958,282.217,180.492z"/>
			<path style="fill:#FDD44B;" d="M279.444,177.266c0.319,0.352,0.615,0.711,0.926,1.065
				C280.059,177.977,279.763,177.618,279.444,177.266z"/>
			<path style="fill:#FDD44B;" d="M40.052,246.874c-0.068-0.21-0.125-0.425-0.186-0.639
				C39.928,246.449,39.985,246.664,40.052,246.874z"/>
			<path style="fill:#FDD44B;" d="M268.343,166.912c0.462,0.37,0.916,0.744,1.368,1.118
				C269.259,167.656,268.805,167.283,268.343,166.912z"/>
			<path style="fill:#FDD44B;" d="M271.934,169.928c0.443,0.389,0.887,0.776,1.318,1.169
				C272.82,170.704,272.376,170.316,271.934,169.928z"/>
			<path style="fill:#FDD44B;" d="M276.523,174.206c-0.353-0.353-0.727-0.699-1.088-1.049
				C275.796,173.507,276.17,173.853,276.523,174.206z"/>
			<path style="fill:#FDD44B;" d="M52.739,260.666c-0.236-0.098-0.461-0.215-0.693-0.322
				C52.278,260.451,52.503,260.568,52.739,260.666z"/>
			<path style="fill:#FDD44B;" d="M50.957,259.819c-0.263-0.138-0.519-0.288-0.776-0.437
				C50.438,259.531,50.694,259.681,50.957,259.819z"/>
			<path style="fill:#FDD44B;" d="M104.936,166.85c-0.076-0.427-0.13-0.859-0.13-1.295
				C104.806,165.991,104.859,166.423,104.936,166.85z"/>
			<path style="fill:#FDD44B;" d="M40.744,248.753c-0.029-0.068-0.051-0.14-0.08-0.209
				C40.693,248.612,40.715,248.684,40.744,248.753z"/>
			<path style="fill:#FDD44B;" d="M284.432,182.974c-2.812-2.324-5.959-4.57-9.167-6.721c-24.591-16.485-57.497-25.564-92.53-25.564
				c-22.775,0-44.64,3.859-63.896,11.074c-0.023-0.039-0.077-0.069-0.1-0.108c0.709,1.168,1.11,2.517,1.11,3.9
				c0,1.975-0.806,3.919-2.199,5.313c-1.403,1.403-3.35,2.204-5.325,2.204c-1.975,0-3.91-0.801-5.313-2.204
				c-0.992-0.985-1.664-2.251-1.984-3.602c0.031,0.13,0.048,0.262,0.085,0.39c-5.24,2.591-10.048,5.458-14.731,8.597
				c-23.666,15.866-36.522,36.66-36.522,58.547v20.273c0,2.15,0.133,4.388,0.703,6.356c2.185,0.716,4.333,1.274,6.754,1.274h213.627
				c12.321,0,22.915-10.344,22.915-22.665v-20.273C297.861,206.856,293.009,194.337,284.432,182.974z M79.057,207.753
				c-1.394,1.402-3.338,2.204-5.313,2.204c-1.974,0-3.918-0.802-5.321-2.204c-1.394-1.404-2.196-3.338-2.196-5.313
				c0-1.985,0.802-3.919,2.196-5.323c1.403-1.392,3.347-2.195,5.321-2.195c1.975,0,3.919,0.802,5.313,2.195
				c1.403,1.404,2.204,3.338,2.204,5.323C81.262,204.415,80.46,206.349,79.057,207.753z M117.645,244.636
				c-1.403,1.404-3.348,2.206-5.322,2.206c-1.975,0-3.909-0.803-5.312-2.206c-1.403-1.394-2.205-3.338-2.205-5.311
				c0-1.985,0.802-3.919,2.205-5.323c1.403-1.404,3.337-2.206,5.312-2.206c1.974,0,3.919,0.802,5.322,2.206
				c1.393,1.403,2.195,3.338,2.195,5.323C119.84,241.298,119.038,243.232,117.645,244.636z M141.98,207.753
				c-1.393,1.402-3.327,2.204-5.312,2.204c-1.975,0-3.919-0.802-5.313-2.204c-1.403-1.404-2.204-3.338-2.204-5.313
				c0-1.985,0.802-3.919,2.204-5.323c1.394-1.392,3.338-2.195,5.313-2.195c1.974,0,3.919,0.802,5.312,2.195
				c1.402,1.404,2.205,3.338,2.205,5.323C144.186,204.415,143.383,206.359,141.98,207.753z M173.451,244.636
				c-1.412,1.404-3.347,2.206-5.321,2.206c-1.975,0-3.909-0.803-5.313-2.206c-1.403-1.403-2.204-3.338-2.204-5.311
				c0-1.985,0.801-3.919,2.204-5.323c1.394-1.404,3.337-2.206,5.313-2.206c1.974,0,3.918,0.802,5.321,2.206
				c1.394,1.403,2.197,3.338,2.197,5.323C175.648,241.298,174.845,243.232,173.451,244.636z M173.442,170.868
				c-1.393,1.403-3.327,2.204-5.311,2.204c-1.975,0-3.919-0.801-5.313-2.204c-1.403-1.394-2.204-3.338-2.204-5.313
				c0-1.983,0.801-3.919,2.204-5.311c1.403-1.404,3.337-2.206,5.313-2.206c1.974,0,3.918,0.802,5.311,2.206
				c1.403,1.392,2.206,3.338,2.206,5.311C175.648,167.53,174.845,169.464,173.442,170.868z M204.914,207.753
				c-1.404,1.402-3.338,2.204-5.323,2.204c-1.973,0-3.908-0.802-5.311-2.204c-1.403-1.404-2.206-3.338-2.206-5.313
				c0-1.985,0.802-3.919,2.206-5.323c1.403-1.392,3.338-2.195,5.311-2.195c1.985,0,3.919,0.802,5.323,2.195
				c1.394,1.404,2.194,3.338,2.194,5.323C207.108,204.415,206.308,206.349,204.914,207.753z M229.249,244.636
				c-1.393,1.404-3.338,2.206-5.312,2.206c-1.976,0-3.909-0.803-5.313-2.206c-1.402-1.403-2.204-3.338-2.204-5.311
				c0-1.985,0.801-3.919,2.204-5.323c1.404-1.404,3.338-2.206,5.313-2.206c1.984,0,3.919,0.802,5.312,2.206
				c1.402,1.403,2.205,3.338,2.205,5.323C231.455,241.298,230.652,243.232,229.249,244.636z M229.259,170.868
				c-1.403,1.403-3.338,2.204-5.321,2.204c-1.976,0-3.909-0.801-5.313-2.204c-1.402-1.394-2.204-3.338-2.204-5.313
				c0-1.983,0.801-3.919,2.204-5.311c1.404-1.404,3.338-2.206,5.313-2.206c1.974,0,3.919,0.802,5.321,2.206
				c1.393,1.392,2.196,3.328,2.196,5.311C231.455,167.53,230.652,169.474,229.259,170.868z M267.837,207.753
				c-1.404,1.402-3.338,2.204-5.312,2.204c-1.985,0-3.919-0.802-5.323-2.204c-1.393-1.394-2.194-3.328-2.194-5.313
				s0.801-3.919,2.194-5.323c1.404-1.392,3.338-2.195,5.323-2.195c1.974,0,3.908,0.802,5.312,2.195
				c1.402,1.404,2.205,3.338,2.205,5.323C270.042,204.415,269.24,206.349,267.837,207.753z"/>
			<path style="fill:#FDD44B;" d="M49.25,258.816c-0.25-0.161-0.497-0.325-0.739-0.495C48.753,258.492,49,258.655,49.25,258.816z"/>
			<path style="fill:#FDD44B;" d="M43.044,252.856c-0.149-0.212-0.296-0.426-0.438-0.643
				C42.748,252.43,42.894,252.644,43.044,252.856z"/>
			<path style="fill:#FDD44B;" d="M41.93,251.101c-0.112-0.195-0.229-0.387-0.335-0.585
				C41.701,250.715,41.818,250.906,41.93,251.101z"/>
			<path style="fill:#FDD44B;" d="M47.596,257.637c-0.212-0.166-0.43-0.327-0.636-0.501
				C47.166,257.31,47.383,257.471,47.596,257.637z"/>
			<path style="fill:#FDD44B;" d="M44.256,254.436c-0.165-0.196-0.321-0.4-0.48-0.601C43.934,254.036,44.09,254.239,44.256,254.436z
				"/>
		</g>
	</g>
	<g>
		<path style="fill:#3F2D20;" d="M333.013,160.828c-1.115-6.074-3.313-11.91-7.326-17.142c-7.558-9.858-20.539-12.824-33.091-15.692
			c-7.778-1.777-15.82-3.616-21.917-6.998c-5.029-2.792-9.929-8.267-15.117-14.061c-8.156-9.113-17.401-19.441-30.489-22.491
			c-11.34-2.643-22.828,1.644-33.936,5.788c-7.898,2.948-16.064,5.994-23.181,5.994c-7.116,0-15.283-3.046-23.18-5.994
			c-11.109-4.144-22.597-8.429-33.935-5.788c-13.091,3.05-22.337,13.38-30.494,22.492c-5.187,5.795-10.086,11.268-15.116,14.061
			c-6.095,3.383-14.137,5.219-21.913,6.996c-12.554,2.87-25.535,5.836-33.093,15.694c-10.225,13.337-8.699,30.566-7.354,45.764
			c0.395,4.463,0.77,8.703,0.847,12.648c-2.007,5.33-7.415,22.534,0.3,36.207c4.393,7.785,11.927,12.875,22.43,15.173
			c5.41,13.989,18.996,23.939,34.87,23.939h262.35c20.611,0,37.38-16.768,37.38-37.38v-20.273
			C361.048,198.243,351.364,177.917,333.013,160.828z M346.014,240.039c0,12.321-10.025,22.346-22.346,22.346h-18.816
			c1.915-2.557,3.528-5.348,4.745-8.349c11.004-1.36,17.05-6.657,20.263-11.209c9.792-13.869,4.195-34.68,2.332-40.512
			c0.066-4.005,0.447-8.32,0.85-12.863c0.163-1.848,0.33-3.725,0.477-5.622c8.215,11.18,12.495,23.371,12.495,35.937V240.039z
			 M38.974,240.039v-20.273c0-21.888,13.034-42.681,36.7-58.547c24.59-16.485,57.426-25.564,92.459-25.564
			c35.033,0,67.868,9.079,92.459,25.564c23.667,15.866,36.701,36.659,36.701,58.547v20.273c0,12.321-10.025,22.346-22.346,22.346
			H61.318C48.998,262.385,38.974,252.36,38.974,240.039z M17.847,188.126c-1.158-13.077-2.355-26.6,4.31-35.291
			c4.26-5.558,14.097-7.805,24.51-10.185c8.8-2.01,17.899-4.089,25.861-8.508c7.245-4.023,13.232-10.712,19.022-17.18
			c7.321-8.179,14.236-15.903,22.703-17.876c6.921-1.617,15.832,1.711,25.267,5.233c9.148,3.412,18.607,6.942,28.436,6.942
			c9.831,0,19.289-3.53,28.436-6.942c9.436-3.52,18.345-6.85,25.269-5.233c8.465,1.973,15.379,9.696,22.699,17.875
			c5.79,6.47,11.778,13.159,19.025,17.18c7.962,4.418,17.061,6.497,25.862,8.51c10.413,2.379,20.249,4.626,24.51,10.183
			c6.664,8.692,5.469,22.215,4.311,35.293c-0.451,5.103-0.919,10.379-0.919,15.381c0,0.857,0.147,1.707,0.435,2.516
			c1.725,4.855,5.424,20.445-0.004,28.134c-0.57,0.808-1.887,2.65-5.252,3.907v-18.298c0-27.062-15.4-52.289-43.363-71.035
			c-27.039-18.127-62.849-28.111-100.83-28.111c-37.983,0-73.792,9.984-100.831,28.111c-27.963,18.746-43.362,43.973-43.362,71.035
			v17.123c-3.098-1.454-5.384-3.431-6.807-5.935c-4.458-7.846-0.786-20.302,0.997-24.419c0.42-0.955,0.637-1.987,0.637-3.028
			C18.767,198.505,18.299,193.23,17.847,188.126z"/>
	</g>
	<path style="fill:#3F2D20;" d="M73.745,209.957c1.975,0,3.919-0.802,5.312-2.204c1.403-1.404,2.205-3.338,2.205-5.313
		c0-1.985-0.801-3.919-2.205-5.323c-1.393-1.392-3.338-2.195-5.312-2.195c-1.974,0-3.919,0.803-5.322,2.195
		c-1.393,1.404-2.195,3.338-2.195,5.323c0,1.975,0.802,3.909,2.195,5.313C69.826,209.155,71.77,209.957,73.745,209.957z"/>
	<path style="fill:#3F2D20;" d="M262.525,209.957c1.974,0,3.908-0.802,5.312-2.204c1.403-1.404,2.205-3.338,2.205-5.313
		c0-1.985-0.802-3.919-2.205-5.323c-1.404-1.392-3.338-2.195-5.312-2.195c-1.985,0-3.919,0.803-5.323,2.195
		c-1.393,1.404-2.194,3.338-2.194,5.323s0.801,3.919,2.194,5.313C258.606,209.155,260.54,209.957,262.525,209.957z"/>
	<path style="fill:#3F2D20;" d="M199.591,209.957c1.985,0,3.919-0.802,5.323-2.204c1.394-1.404,2.194-3.338,2.194-5.313
		c0-1.985-0.801-3.919-2.194-5.323c-1.404-1.392-3.338-2.195-5.323-2.195c-1.973,0-3.908,0.803-5.311,2.195
		c-1.404,1.404-2.206,3.338-2.206,5.323c0,1.975,0.803,3.909,2.206,5.313C195.682,209.155,197.618,209.957,199.591,209.957z"/>
	<path style="fill:#3F2D20;" d="M136.668,209.957c1.985,0,3.919-0.802,5.312-2.204c1.403-1.394,2.205-3.338,2.205-5.313
		c0-1.985-0.802-3.919-2.205-5.323c-1.393-1.392-3.338-2.195-5.312-2.195c-1.975,0-3.919,0.803-5.312,2.195
		c-1.403,1.404-2.205,3.338-2.205,5.323c0,1.975,0.802,3.909,2.205,5.313C132.749,209.155,134.693,209.957,136.668,209.957z"/>
	<path style="fill:#3F2D20;" d="M168.13,173.073c1.984,0,3.918-0.801,5.311-2.204c1.403-1.404,2.206-3.338,2.206-5.313
		c0-1.973-0.803-3.919-2.206-5.311c-1.393-1.404-3.338-2.206-5.311-2.206c-1.975,0-3.909,0.802-5.313,2.206
		c-1.404,1.392-2.204,3.328-2.204,5.311c0,1.975,0.801,3.919,2.204,5.313C164.211,172.272,166.155,173.073,168.13,173.073z"/>
	<path style="fill:#3F2D20;" d="M168.13,246.842c1.973,0,3.908-0.803,5.321-2.206c1.394-1.404,2.196-3.338,2.196-5.311
		c0-1.985-0.803-3.919-2.196-5.323c-1.403-1.404-3.348-2.206-5.321-2.206c-1.975,0-3.919,0.802-5.313,2.206
		c-1.404,1.404-2.204,3.338-2.204,5.323c0,1.973,0.801,3.907,2.204,5.311C164.221,246.039,166.155,246.842,168.13,246.842z"/>
	<path style="fill:#3F2D20;" d="M112.323,173.073c1.974,0,3.919-0.801,5.322-2.204c1.393-1.394,2.195-3.338,2.195-5.313
		c0-1.983-0.801-3.919-2.195-5.311c-1.403-1.404-3.348-2.206-5.322-2.206c-1.975,0-3.909,0.802-5.312,2.206
		c-1.404,1.392-2.205,3.328-2.205,5.311c0,1.975,0.801,3.919,2.205,5.313C108.414,172.272,110.348,173.073,112.323,173.073z"/>
	<path style="fill:#3F2D20;" d="M112.323,246.842c1.974,0,3.919-0.803,5.322-2.206c1.393-1.404,2.195-3.338,2.195-5.311
		c0-1.985-0.801-3.919-2.195-5.323c-1.403-1.404-3.348-2.206-5.322-2.206c-1.975,0-3.909,0.802-5.312,2.206
		c-1.404,1.404-2.205,3.338-2.205,5.323c0,1.973,0.801,3.917,2.205,5.311C108.414,246.039,110.348,246.842,112.323,246.842z"/>
	<path style="fill:#3F2D20;" d="M223.937,173.073c1.984,0,3.919-0.801,5.322-2.204c1.393-1.394,2.195-3.338,2.195-5.313
		c0-1.983-0.802-3.919-2.195-5.311c-1.403-1.404-3.347-2.206-5.322-2.206c-1.975,0-3.909,0.802-5.313,2.206
		c-1.403,1.392-2.204,3.328-2.204,5.311c0,1.975,0.801,3.919,2.204,5.313C220.028,172.272,221.962,173.073,223.937,173.073z"/>
	<path style="fill:#3F2D20;" d="M223.937,246.842c1.974,0,3.919-0.803,5.312-2.206c1.403-1.404,2.205-3.338,2.205-5.311
		c0-1.985-0.802-3.919-2.205-5.323c-1.393-1.404-3.328-2.206-5.312-2.206c-1.975,0-3.909,0.802-5.313,2.206
		c-1.403,1.404-2.204,3.338-2.204,5.323c0,1.973,0.801,3.907,2.204,5.311C220.028,246.039,221.962,246.842,223.937,246.842z"/>
</g>
<g>
</g>
<g>
</g>
<g>
</g>
<g>
</g>
<g>
</g>
<g>
</g>
<g>
</g>
<g>
</g>
<g>
</g>
<g>
</g>
<g>
</g>
<g>
</g>
<g>
</g>
<g>
</g>
<g>
</g>
</svg>
