<?xml version="1.0" encoding="utf-8"?>
<!-- Generator: Adobe Illustrator 23.0.4, SVG Export Plug-In . SVG Version: 6.00 Build 0)  -->
<svg version="1.1" id="Capa_1" xmlns="http://www.w3.org/2000/svg" xmlns:xlink="http://www.w3.org/1999/xlink" x="0px" y="0px"
	 viewBox="0 0 361 361" style="enable-background:new 0 0 361 361;" xml:space="preserve">
<style type="text/css">
	.st0{fill:#F7B923;}
</style>
<g>
	<g>
		<g>
			<g>
				<path class="st0" d="M230.3,103.2c0.4,0.3,0.8,0.6,1.2,0.9C231.1,103.8,230.7,103.5,230.3,103.2z"/>
				<path class="st0" d="M227.5,101.4c0.4,0.2,0.8,0.5,1.1,0.7C228.3,101.9,227.9,101.7,227.5,101.4z"/>
				<path class="st0" d="M224.6,100c0.3,0.1,0.7,0.3,1,0.5C225.3,100.4,225,100.2,224.6,100z"/>
				<path class="st0" d="M139.5,104.3c9.1,3.4,18.6,6.9,28.4,6.9l0,0C158.1,111.3,148.7,107.7,139.5,104.3c-8.3-3.1-16.1-6-22.6-5.6
					C123.4,98.3,131.3,101.2,139.5,104.3z"/>
				<path class="st0" d="M241,113.2c0.4,0.5,0.9,0.9,1.3,1.4C241.9,114.2,241.4,113.7,241,113.2z"/>
				<path class="st0" d="M238.3,110.4c0.4,0.4,0.8,0.9,1.2,1.3C239.2,111.3,238.7,110.8,238.3,110.4z"/>
				<path class="st0" d="M233,105.4c0.4,0.3,0.8,0.7,1.2,1.1C233.8,106.1,233.4,105.7,233,105.4z"/>
				<path class="st0" d="M236.9,109c-0.4-0.4-0.8-0.8-1.2-1.2C236.1,108.2,236.5,108.6,236.9,109z"/>
				<path class="st0" d="M21.6,235.6c0.4,0.3,0.9,0.5,1.3,0.7C22.5,236.1,22,235.8,21.6,235.6z"/>
				<path class="st0" d="M24.6,210.4c-0.1,1.1-0.3,2.2-0.4,3.3C24.3,212.6,24.4,211.5,24.6,210.4z"/>
				<path class="st0" d="M18.3,232.7c0.2,0.3,0.5,0.5,0.7,0.7C18.8,233.2,18.5,232.9,18.3,232.7z"/>
				<path class="st0" d="M25.3,206c-0.2,0.9-0.3,1.7-0.5,2.6C25,207.7,25.2,206.8,25.3,206z"/>
				<path class="st0" d="M81.4,140.5c-1,0.5-1.9,1-2.9,1.5C79.4,141.5,80.4,141,81.4,140.5z"/>
				<path class="st0" d="M19.8,234.2c0.3,0.3,0.7,0.6,1.1,0.8C20.5,234.8,20.2,234.5,19.8,234.2z"/>
			</g>
		</g>
		<g>
			<path class="st0" d="M332.6,203.5c-0.1-0.4-0.3-0.9-0.4-1.2C332.3,202.7,332.4,203.1,332.6,203.5z"/>
		</g>
		<g>
			<path class="st0" d="M45.2,255.5c0.1,0.1,0.2,0.3,0.4,0.4C45.5,255.8,45.3,255.6,45.2,255.5z"/>
			<path class="st0" d="M39.2,242.8c0-0.2-0.1-0.4-0.1-0.6C39.1,242.3,39.1,242.6,39.2,242.8z"/>
			<path class="st0" d="M264.6,164c0.4,0.3,0.8,0.6,1.2,0.9C265.4,164.6,265,164.3,264.6,164z"/>
			<path class="st0" d="M39.5,244.9c-0.1-0.2-0.1-0.5-0.1-0.7C39.4,244.4,39.5,244.7,39.5,244.9z"/>
			<path class="st0" d="M282.2,180.5c0.4,0.5,0.7,0.9,1.1,1.4C283,181.4,282.6,181,282.2,180.5z"/>
			<path class="st0" d="M279.4,177.3c0.3,0.4,0.6,0.7,0.9,1.1C280.1,178,279.8,177.6,279.4,177.3z"/>
			<path class="st0" d="M40.1,246.9c-0.1-0.2-0.1-0.4-0.2-0.6C39.9,246.4,40,246.7,40.1,246.9z"/>
			<path class="st0" d="M268.3,166.9c0.5,0.4,0.9,0.7,1.4,1.1C269.3,167.7,268.8,167.3,268.3,166.9z"/>
			<path class="st0" d="M271.9,169.9c0.4,0.4,0.9,0.8,1.3,1.2C272.8,170.7,272.4,170.3,271.9,169.9z"/>
			<path class="st0" d="M276.5,174.2c-0.4-0.4-0.7-0.7-1.1-1C275.8,173.5,276.2,173.9,276.5,174.2z"/>
			<path class="st0" d="M52.7,260.7c-0.2-0.1-0.5-0.2-0.7-0.3C52.3,260.5,52.5,260.6,52.7,260.7z"/>
			<path class="st0" d="M51,259.8c-0.3-0.1-0.5-0.3-0.8-0.4C50.4,259.5,50.7,259.7,51,259.8z"/>
			<path class="st0" d="M104.9,166.9c-0.1-0.4-0.1-0.9-0.1-1.3C104.8,166,104.9,166.4,104.9,166.9z"/>
			<path class="st0" d="M40.7,248.8c0-0.1-0.1-0.1-0.1-0.2C40.7,248.6,40.7,248.7,40.7,248.8z"/>
			<path class="st0" d="M49.2,258.8c-0.2-0.2-0.5-0.3-0.7-0.5C48.8,258.5,49,258.7,49.2,258.8z"/>
			<path class="st0" d="M43,252.9c-0.1-0.2-0.3-0.4-0.4-0.6C42.7,252.4,42.9,252.6,43,252.9z"/>
			<path class="st0" d="M41.9,251.1c-0.1-0.2-0.2-0.4-0.3-0.6C41.7,250.7,41.8,250.9,41.9,251.1z"/>
			<path class="st0" d="M47.6,257.6c-0.2-0.2-0.4-0.3-0.6-0.5C47.2,257.3,47.4,257.5,47.6,257.6z"/>
			<path class="st0" d="M44.3,254.4c-0.2-0.2-0.3-0.4-0.5-0.6C43.9,254,44.1,254.2,44.3,254.4z"/>
		</g>
	</g>
	<g>
		<path class="st0" d="M333,160.8c-1.1-6.1-3.3-11.9-7.3-17.1c-7.6-9.9-20.5-12.8-33.1-15.7c-7.8-1.8-15.8-3.6-21.9-7
			c-5-2.8-9.9-8.3-15.1-14.1c-8.2-9.1-17.4-19.4-30.5-22.5c-11.3-2.6-22.8,1.6-33.9,5.8c-7.9,2.9-16.1,6-23.2,6
			c-7.1,0-15.3-3-23.2-6c-11.1-4.1-22.6-8.4-33.9-5.8c-13.1,3.1-22.3,13.4-30.5,22.5c-5.2,5.8-10.1,11.3-15.1,14.1
			c-6.1,3.4-14.1,5.2-21.9,7c-12.6,2.9-25.5,5.8-33.1,15.7C0,157,1.5,174.3,2.9,189.5c0.4,4.5,0.8,8.7,0.8,12.6
			c-2,5.3-7.4,22.5,0.3,36.2c4.4,7.8,11.9,12.9,22.4,15.2c5.4,14,19,23.9,34.9,23.9h262.4c20.6,0,37.4-16.8,37.4-37.4v-20.3
			C361,198.2,351.4,177.9,333,160.8z M346,240c0,12.3-10,22.3-22.3,22.3h-18.8c1.9-2.6,3.5-5.3,4.7-8.3c11-1.4,17-6.7,20.3-11.2
			c9.8-13.9,4.2-34.7,2.3-40.5c0.1-4,0.4-8.3,0.9-12.9c0.2-1.8,0.3-3.7,0.5-5.6c8.2,11.2,12.5,23.4,12.5,35.9L346,240L346,240z
			 M39,240v-20.3c0-21.9,13-42.7,36.7-58.5c24.6-16.5,57.4-25.6,92.5-25.6s67.9,9.1,92.5,25.6c23.7,15.9,36.7,36.7,36.7,58.5V240
			c0,12.3-10,22.3-22.3,22.3H61.3C49,262.4,39,252.4,39,240z M17.8,188.1c-1.2-13.1-2.4-26.6,4.3-35.3c4.3-5.6,14.1-7.8,24.5-10.2
			c8.8-2,17.9-4.1,25.9-8.5c7.2-4,13.2-10.7,19-17.2c7.3-8.2,14.2-15.9,22.7-17.9c6.9-1.6,15.8,1.7,25.3,5.2
			c9.1,3.4,18.6,6.9,28.4,6.9c9.8,0,19.3-3.5,28.4-6.9c9.4-3.5,18.3-6.8,25.3-5.2c8.5,2,15.4,9.7,22.7,17.9
			c5.8,6.5,11.8,13.2,19,17.2c8,4.4,17.1,6.5,25.9,8.5c10.4,2.4,20.2,4.6,24.5,10.2c6.7,8.7,5.5,22.2,4.3,35.3
			c-0.5,5.1-0.9,10.4-0.9,15.4c0,0.9,0.1,1.7,0.4,2.5c1.7,4.9,5.4,20.4,0,28.1c-0.6,0.8-1.9,2.6-5.3,3.9v-18.3
			c0-27.1-15.4-52.3-43.4-71c-27-18.1-62.8-28.1-100.8-28.1c-38,0-73.8,10-100.8,28.1c-28,18.7-43.4,44-43.4,71v17.1
			c-3.1-1.5-5.4-3.4-6.8-5.9c-4.5-7.8-0.8-20.3,1-24.4c0.4-1,0.6-2,0.6-3C18.8,198.5,18.3,193.2,17.8,188.1z"/>
	</g>
	<path class="st0" d="M73.7,210c2,0,3.9-0.8,5.3-2.2c1.4-1.4,2.2-3.3,2.2-5.3c0-2-0.8-3.9-2.2-5.3c-1.4-1.4-3.3-2.2-5.3-2.2
		s-3.9,0.8-5.3,2.2c-1.4,1.4-2.2,3.3-2.2,5.3c0,2,0.8,3.9,2.2,5.3C69.8,209.2,71.8,210,73.7,210z"/>
	<path class="st0" d="M262.5,210c2,0,3.9-0.8,5.3-2.2c1.4-1.4,2.2-3.3,2.2-5.3c0-2-0.8-3.9-2.2-5.3c-1.4-1.4-3.3-2.2-5.3-2.2
		c-2,0-3.9,0.8-5.3,2.2c-1.4,1.4-2.2,3.3-2.2,5.3s0.8,3.9,2.2,5.3C258.6,209.2,260.5,210,262.5,210z"/>
	<path class="st0" d="M199.6,210c2,0,3.9-0.8,5.3-2.2c1.4-1.4,2.2-3.3,2.2-5.3c0-2-0.8-3.9-2.2-5.3c-1.4-1.4-3.3-2.2-5.3-2.2
		c-2,0-3.9,0.8-5.3,2.2c-1.4,1.4-2.2,3.3-2.2,5.3c0,2,0.8,3.9,2.2,5.3C195.7,209.2,197.6,210,199.6,210z"/>
	<path class="st0" d="M136.7,210c2,0,3.9-0.8,5.3-2.2c1.4-1.4,2.2-3.3,2.2-5.3c0-2-0.8-3.9-2.2-5.3c-1.4-1.4-3.3-2.2-5.3-2.2
		c-2,0-3.9,0.8-5.3,2.2c-1.4,1.4-2.2,3.3-2.2,5.3c0,2,0.8,3.9,2.2,5.3C132.7,209.2,134.7,210,136.7,210z"/>
	<path class="st0" d="M168.1,173.1c2,0,3.9-0.8,5.3-2.2c1.4-1.4,2.2-3.3,2.2-5.3c0-2-0.8-3.9-2.2-5.3c-1.4-1.4-3.3-2.2-5.3-2.2
		c-2,0-3.9,0.8-5.3,2.2c-1.4,1.4-2.2,3.3-2.2,5.3c0,2,0.8,3.9,2.2,5.3C164.2,172.3,166.2,173.1,168.1,173.1z"/>
	<path class="st0" d="M168.1,246.8c2,0,3.9-0.8,5.3-2.2c1.4-1.4,2.2-3.3,2.2-5.3c0-2-0.8-3.9-2.2-5.3c-1.4-1.4-3.3-2.2-5.3-2.2
		c-2,0-3.9,0.8-5.3,2.2c-1.4,1.4-2.2,3.3-2.2,5.3c0,2,0.8,3.9,2.2,5.3C164.2,246,166.2,246.8,168.1,246.8z"/>
	<path class="st0" d="M112.3,173.1c2,0,3.9-0.8,5.3-2.2c1.4-1.4,2.2-3.3,2.2-5.3c0-2-0.8-3.9-2.2-5.3c-1.4-1.4-3.3-2.2-5.3-2.2
		c-2,0-3.9,0.8-5.3,2.2c-1.4,1.4-2.2,3.3-2.2,5.3c0,2,0.8,3.9,2.2,5.3C108.4,172.3,110.3,173.1,112.3,173.1z"/>
	<path class="st0" d="M112.3,246.8c2,0,3.9-0.8,5.3-2.2c1.4-1.4,2.2-3.3,2.2-5.3c0-2-0.8-3.9-2.2-5.3c-1.4-1.4-3.3-2.2-5.3-2.2
		c-2,0-3.9,0.8-5.3,2.2c-1.4,1.4-2.2,3.3-2.2,5.3c0,2,0.8,3.9,2.2,5.3C108.4,246,110.3,246.8,112.3,246.8z"/>
	<path class="st0" d="M223.9,173.1c2,0,3.9-0.8,5.3-2.2c1.4-1.4,2.2-3.3,2.2-5.3c0-2-0.8-3.9-2.2-5.3c-1.4-1.4-3.3-2.2-5.3-2.2
		s-3.9,0.8-5.3,2.2c-1.4,1.4-2.2,3.3-2.2,5.3c0,2,0.8,3.9,2.2,5.3C220,172.3,222,173.1,223.9,173.1z"/>
	<path class="st0" d="M223.9,246.8c2,0,3.9-0.8,5.3-2.2c1.4-1.4,2.2-3.3,2.2-5.3c0-2-0.8-3.9-2.2-5.3c-1.4-1.4-3.3-2.2-5.3-2.2
		c-2,0-3.9,0.8-5.3,2.2c-1.4,1.4-2.2,3.3-2.2,5.3c0,2,0.8,3.9,2.2,5.3C220,246,222,246.8,223.9,246.8z"/>
</g>
</svg>
